<svg width="1307" height="987" viewBox="0 0 1307 987" fill="none" xmlns="http://www.w3.org/2000/svg">
<path d="M559.069 461.61C537.329 403.733 554.938 337.249 601.136 276.51C647.33 215.777 722.064 160.855 814.401 126.171C906.737 91.4869 999.148 83.6243 1073.9 98.9262C1148.66 114.23 1205.69 152.679 1227.43 210.556C1249.17 268.432 1231.56 334.916 1185.36 395.656C1139.17 456.389 1064.43 511.311 972.097 545.995C879.761 580.679 787.35 588.541 712.596 573.239C637.834 557.936 580.808 519.486 559.069 461.61Z" fill="#F4F8FF" stroke="#161616"/>
<path d="M70.7944 610.54C51.4643 559.079 70.4368 498.686 116.948 442.598C163.449 386.523 237.411 334.844 327.822 300.884C418.233 266.923 507.928 257.127 579.847 268.721C651.782 280.317 705.824 313.285 725.154 364.745C744.484 416.206 725.511 476.6 679 532.687C632.499 588.762 558.537 640.441 468.126 674.402C377.715 708.363 288.02 718.158 216.101 706.565C144.166 694.969 90.1245 662.001 70.7944 610.54Z" stroke="#161616"/>
<path d="M642.513 946.953C591.134 936.307 550.582 897.666 526.58 843.709C502.578 789.753 495.147 720.518 510.007 648.8C524.868 577.082 559.196 516.5 602.661 476.523C646.127 436.545 698.694 417.199 750.073 427.844C801.451 438.49 842.003 477.131 866.006 531.088C890.008 585.044 897.438 654.279 882.578 725.997C867.718 797.715 833.389 858.298 789.924 898.275C746.459 938.252 693.891 957.599 642.513 946.953Z" stroke="#161616"/>
<path d="M181.843 531.391V502.591H187.283V514.431H200.163V502.591H205.603V531.391H200.163V519.511H187.283V531.391H181.843ZM221.258 531.991C219.045 531.991 217.091 531.517 215.398 530.571C213.718 529.611 212.398 528.297 211.438 526.631C210.491 524.951 210.018 523.031 210.018 520.871C210.018 518.511 210.485 516.457 211.418 514.711C212.351 512.964 213.638 511.611 215.278 510.651C216.918 509.677 218.805 509.191 220.938 509.191C223.205 509.191 225.131 509.724 226.718 510.791C228.305 511.857 229.478 513.357 230.238 515.291C230.998 517.224 231.265 519.497 231.038 522.111H225.658V520.111C225.658 517.911 225.305 516.331 224.598 515.371C223.905 514.397 222.765 513.911 221.178 513.911C219.325 513.911 217.958 514.477 217.078 515.611C216.211 516.731 215.778 518.391 215.778 520.591C215.778 522.604 216.211 524.164 217.078 525.271C217.958 526.364 219.245 526.911 220.938 526.911C222.005 526.911 222.918 526.677 223.678 526.211C224.438 525.744 225.018 525.071 225.418 524.191L230.858 525.751C230.045 527.724 228.758 529.257 226.998 530.351C225.251 531.444 223.338 531.991 221.258 531.991ZM214.098 522.111V518.071H228.418V522.111H214.098ZM235.554 531.391V509.791H251.154V514.871H240.994V531.391H235.554ZM274.208 509.791V531.391H269.008V518.191L259.248 531.391H254.928V509.791H260.128V522.551L269.928 509.791H274.208ZM287.452 531.991C285.438 531.991 283.572 531.577 281.852 530.751C280.145 529.911 278.798 528.764 277.812 527.311L282.092 524.431C282.852 525.204 283.665 525.811 284.532 526.251C285.412 526.691 286.372 526.911 287.412 526.911C288.492 526.911 289.332 526.677 289.932 526.211C290.545 525.744 290.852 525.124 290.852 524.351C290.852 523.604 290.605 523.097 290.112 522.831C289.632 522.564 289.018 522.424 288.272 522.411C287.538 522.397 286.798 522.391 286.052 522.391H284.772V518.151H286.052C287.172 518.151 288.125 518.057 288.912 517.871C289.698 517.671 290.092 517.124 290.092 516.231C290.092 515.484 289.818 514.964 289.272 514.671C288.725 514.377 288.092 514.231 287.372 514.231C286.412 514.231 285.445 514.437 284.472 514.851C283.498 515.264 282.612 515.751 281.812 516.311L278.812 512.591C280.038 511.564 281.398 510.744 282.892 510.131C284.398 509.504 285.972 509.191 287.612 509.191C288.998 509.191 290.305 509.431 291.532 509.911C292.772 510.391 293.772 511.117 294.532 512.091C295.305 513.051 295.692 514.257 295.692 515.711C295.692 516.644 295.505 517.557 295.132 518.451C294.758 519.344 294.118 520.231 293.212 521.111L293.172 519.391C293.838 519.737 294.412 520.184 294.892 520.731C295.385 521.264 295.758 521.884 296.012 522.591C296.278 523.297 296.412 524.071 296.412 524.911C296.412 526.457 295.998 527.757 295.172 528.811C294.345 529.864 293.252 530.657 291.892 531.191C290.532 531.724 289.052 531.991 287.452 531.991ZM300.827 531.391V509.791H316.427V514.871H306.267V531.391H300.827ZM339.481 509.791V531.391H334.281V518.191L324.521 531.391H320.201V509.791H325.401V522.551L335.201 509.791H339.481ZM353.053 531.391L353.093 509.791H358.613V520.191L365.933 509.791H372.653L364.853 520.591L373.173 531.391H366.093L358.613 520.991V531.391H353.053ZM376.013 522.671V518.471H393.053V522.671H376.013ZM384.493 531.991C382.319 531.991 380.413 531.504 378.773 530.531C377.133 529.557 375.853 528.217 374.933 526.511C374.026 524.791 373.573 522.817 373.573 520.591C373.573 518.337 374.039 516.357 374.973 514.651C375.906 512.931 377.193 511.591 378.833 510.631C380.473 509.671 382.359 509.191 384.493 509.191C386.666 509.191 388.573 509.677 390.213 510.651C391.866 511.624 393.153 512.971 394.073 514.691C394.993 516.397 395.453 518.364 395.453 520.591C395.453 522.831 394.986 524.811 394.053 526.531C393.133 528.237 391.846 529.577 390.193 530.551C388.553 531.511 386.653 531.991 384.493 531.991ZM384.493 526.911C386.239 526.911 387.539 526.324 388.393 525.151C389.259 523.964 389.693 522.444 389.693 520.591C389.693 518.671 389.253 517.137 388.373 515.991C387.506 514.844 386.213 514.271 384.493 514.271C383.306 514.271 382.333 514.537 381.573 515.071C380.813 515.604 380.246 516.344 379.873 517.291C379.513 518.237 379.333 519.337 379.333 520.591C379.333 522.524 379.766 524.064 380.633 525.211C381.513 526.344 382.799 526.911 384.493 526.911ZM399.811 531.391V509.791H405.251V518.031H414.131V509.791H419.571V531.391H414.131V523.111H405.251V531.391H399.811ZM423.563 536.191V527.191C424.71 527.191 425.523 526.791 426.003 525.991C426.497 525.191 426.883 523.764 427.163 521.711C427.323 520.524 427.457 519.277 427.563 517.971C427.683 516.664 427.783 515.324 427.863 513.951C427.943 512.577 428.017 511.191 428.083 509.791H444.763V527.191H446.963V536.191H441.843V531.391H428.683V536.191H423.563ZM430.523 527.191H439.323V513.991H432.803C432.763 514.724 432.717 515.457 432.663 516.191C432.623 516.924 432.57 517.651 432.503 518.371C432.45 519.091 432.397 519.791 432.343 520.471C432.29 521.137 432.23 521.777 432.163 522.391C432.043 523.564 431.877 524.517 431.663 525.251C431.45 525.984 431.07 526.631 430.523 527.191ZM456.785 538.591V531.391L448.945 509.791H454.385L459.505 524.751L464.625 509.791H470.065L462.225 531.391V538.591H456.785ZM473.639 531.391V509.791H478.039L485.559 523.791L493.079 509.791H497.479V531.391H492.279V520.631L486.519 531.391H484.599L478.839 520.631V531.391H473.639ZM501.493 536.191V527.191C502.64 527.191 503.453 526.791 503.933 525.991C504.426 525.191 504.813 523.764 505.093 521.711C505.253 520.524 505.386 519.277 505.493 517.971C505.613 516.664 505.713 515.324 505.793 513.951C505.873 512.577 505.946 511.191 506.013 509.791H522.693V527.191H524.893V536.191H519.773V531.391H506.613V536.191H501.493ZM508.453 527.191H517.253V513.991H510.733C510.693 514.724 510.646 515.457 510.593 516.191C510.553 516.924 510.5 517.651 510.433 518.371C510.38 519.091 510.326 519.791 510.273 520.471C510.22 521.137 510.16 521.777 510.093 522.391C509.973 523.564 509.806 524.517 509.593 525.251C509.38 525.984 509 526.631 508.453 527.191ZM530.114 522.671V518.471H547.154V522.671H530.114ZM538.594 531.991C536.421 531.991 534.514 531.504 532.874 530.531C531.234 529.557 529.954 528.217 529.034 526.511C528.128 524.791 527.674 522.817 527.674 520.591C527.674 518.337 528.141 516.357 529.074 514.651C530.008 512.931 531.294 511.591 532.934 510.631C534.574 509.671 536.461 509.191 538.594 509.191C540.768 509.191 542.674 509.677 544.314 510.651C545.968 511.624 547.254 512.971 548.174 514.691C549.094 516.397 549.554 518.364 549.554 520.591C549.554 522.831 549.088 524.811 548.154 526.531C547.234 528.237 545.948 529.577 544.294 530.551C542.654 531.511 540.754 531.991 538.594 531.991ZM538.594 526.911C540.341 526.911 541.641 526.324 542.494 525.151C543.361 523.964 543.794 522.444 543.794 520.591C543.794 518.671 543.354 517.137 542.474 515.991C541.608 514.844 540.314 514.271 538.594 514.271C537.408 514.271 536.434 514.537 535.674 515.071C534.914 515.604 534.348 516.344 533.974 517.291C533.614 518.237 533.434 519.337 533.434 520.591C533.434 522.524 533.868 524.064 534.734 525.211C535.614 526.344 536.901 526.911 538.594 526.911ZM564.552 531.991C562.406 531.991 560.612 531.491 559.172 530.491C557.732 529.491 556.646 528.131 555.912 526.411C555.192 524.691 554.832 522.751 554.832 520.591C554.832 518.431 555.192 516.491 555.912 514.771C556.632 513.051 557.692 511.691 559.092 510.691C560.492 509.691 562.219 509.191 564.272 509.191C566.339 509.191 568.139 509.684 569.672 510.671C571.206 511.657 572.392 513.011 573.232 514.731C574.086 516.437 574.512 518.391 574.512 520.591C574.512 522.751 574.092 524.691 573.252 526.411C572.426 528.131 571.266 529.491 569.772 530.491C568.279 531.491 566.539 531.991 564.552 531.991ZM553.912 540.991V509.791H558.712V524.591H559.392V540.991H553.912ZM563.672 527.151C564.846 527.151 565.806 526.857 566.552 526.271C567.299 525.684 567.852 524.897 568.212 523.911C568.572 522.911 568.752 521.804 568.752 520.591C568.752 519.391 568.566 518.297 568.192 517.311C567.819 516.311 567.239 515.517 566.452 514.931C565.679 514.331 564.686 514.031 563.472 514.031C562.339 514.031 561.419 514.304 560.712 514.851C560.019 515.397 559.512 516.164 559.192 517.151C558.872 518.137 558.712 519.284 558.712 520.591C558.712 521.897 558.872 523.044 559.192 524.031C559.512 525.017 560.032 525.784 560.752 526.331C561.486 526.877 562.459 527.151 563.672 527.151Z" fill="#191A1B"/>
<path d="M882.617 326.991C879.737 326.991 877.25 326.364 875.157 325.111C873.077 323.857 871.47 322.104 870.337 319.851C869.217 317.597 868.657 314.977 868.657 311.991C868.657 309.004 869.217 306.384 870.337 304.131C871.47 301.877 873.077 300.124 875.157 298.871C877.25 297.617 879.737 296.991 882.617 296.991C885.497 296.991 887.977 297.617 890.057 298.871C892.15 300.124 893.757 301.877 894.877 304.131C896.01 306.384 896.577 309.004 896.577 311.991C896.577 314.977 896.01 317.597 894.877 319.851C893.757 322.104 892.15 323.857 890.057 325.111C887.977 326.364 885.497 326.991 882.617 326.991ZM882.617 321.871C884.444 321.897 885.964 321.504 887.177 320.691C888.39 319.877 889.297 318.724 889.897 317.231C890.51 315.737 890.817 313.991 890.817 311.991C890.817 309.991 890.51 308.257 889.897 306.791C889.297 305.324 888.39 304.184 887.177 303.371C885.964 302.557 884.444 302.137 882.617 302.111C880.79 302.084 879.27 302.477 878.057 303.291C876.844 304.104 875.93 305.257 875.317 306.751C874.717 308.244 874.417 309.991 874.417 311.991C874.417 313.991 874.717 315.724 875.317 317.191C875.93 318.657 876.844 319.797 878.057 320.611C879.27 321.424 880.79 321.844 882.617 321.871ZM911.17 326.991C909.023 326.991 907.23 326.491 905.79 325.491C904.35 324.491 903.263 323.131 902.53 321.411C901.81 319.691 901.45 317.751 901.45 315.591C901.45 313.431 901.81 311.491 902.53 309.771C903.25 308.051 904.31 306.691 905.71 305.691C907.11 304.691 908.836 304.191 910.89 304.191C912.956 304.191 914.756 304.684 916.29 305.671C917.823 306.657 919.01 308.011 919.85 309.731C920.703 311.437 921.13 313.391 921.13 315.591C921.13 317.751 920.71 319.691 919.87 321.411C919.043 323.131 917.883 324.491 916.39 325.491C914.896 326.491 913.156 326.991 911.17 326.991ZM900.53 335.991V304.791H905.33V319.591H906.01V335.991H900.53ZM910.29 322.151C911.463 322.151 912.423 321.857 913.17 321.271C913.916 320.684 914.47 319.897 914.83 318.911C915.19 317.911 915.37 316.804 915.37 315.591C915.37 314.391 915.183 313.297 914.81 312.311C914.436 311.311 913.856 310.517 913.07 309.931C912.296 309.331 911.303 309.031 910.09 309.031C908.956 309.031 908.036 309.304 907.33 309.851C906.636 310.397 906.13 311.164 905.81 312.151C905.49 313.137 905.33 314.284 905.33 315.591C905.33 316.897 905.49 318.044 905.81 319.031C906.13 320.017 906.65 320.784 907.37 321.331C908.103 321.877 909.076 322.151 910.29 322.151ZM930.81 326.391V309.591H923.73V304.791H943.33V309.591H936.25V326.391H930.81ZM956.461 326.991C954.288 326.991 952.381 326.504 950.741 325.531C949.101 324.557 947.821 323.217 946.901 321.511C945.995 319.791 945.541 317.817 945.541 315.591C945.541 313.337 946.008 311.357 946.941 309.651C947.875 307.931 949.161 306.591 950.801 305.631C952.441 304.671 954.328 304.191 956.461 304.191C958.635 304.191 960.541 304.677 962.181 305.651C963.835 306.624 965.121 307.971 966.041 309.691C966.961 311.397 967.421 313.364 967.421 315.591C967.421 317.831 966.955 319.811 966.021 321.531C965.101 323.237 963.815 324.577 962.161 325.551C960.521 326.511 958.621 326.991 956.461 326.991ZM956.461 321.911C958.208 321.911 959.508 321.324 960.361 320.151C961.228 318.964 961.661 317.444 961.661 315.591C961.661 313.671 961.221 312.137 960.341 310.991C959.475 309.844 958.181 309.271 956.461 309.271C955.275 309.271 954.301 309.537 953.541 310.071C952.781 310.604 952.215 311.344 951.841 312.291C951.481 313.237 951.301 314.337 951.301 315.591C951.301 317.524 951.735 319.064 952.601 320.211C953.481 321.344 954.768 321.911 956.461 321.911ZM984.18 326.391V319.391C983.42 319.764 982.58 320.051 981.66 320.251C980.753 320.451 979.806 320.551 978.82 320.551C976.58 320.551 974.8 320.044 973.48 319.031C972.173 318.017 971.326 316.551 970.94 314.631C970.833 314.084 970.753 313.517 970.7 312.931C970.66 312.344 970.633 311.811 970.62 311.331C970.62 310.837 970.62 310.457 970.62 310.191V304.791H976.14V310.191C976.14 310.444 976.153 310.857 976.18 311.431C976.206 311.991 976.286 312.551 976.42 313.111C976.66 314.044 977.066 314.717 977.64 315.131C978.226 315.544 979.06 315.751 980.14 315.751C981.06 315.751 981.846 315.631 982.5 315.391C983.166 315.137 983.726 314.831 984.18 314.471V304.791H989.66V326.391H984.18ZM1004.98 326.991C1002.8 326.991 1000.9 326.504 999.257 325.531C997.617 324.557 996.337 323.217 995.417 321.511C994.51 319.791 994.057 317.817 994.057 315.591C994.057 313.337 994.524 311.357 995.457 309.651C996.39 307.931 997.677 306.591 999.317 305.631C1000.96 304.671 1002.84 304.191 1004.98 304.191C1007.15 304.191 1009.06 304.677 1010.7 305.651C1012.35 306.624 1013.64 307.971 1014.56 309.691C1015.48 311.397 1015.94 313.364 1015.94 315.591C1015.94 317.831 1015.47 319.811 1014.54 321.531C1013.62 323.237 1012.33 324.577 1010.68 325.551C1009.04 326.511 1007.14 326.991 1004.98 326.991ZM1004.98 321.911C1006.72 321.911 1008.02 321.324 1008.88 320.151C1009.74 318.964 1010.18 317.444 1010.18 315.591C1010.18 313.671 1009.74 312.137 1008.86 310.991C1007.99 309.844 1006.7 309.271 1004.98 309.271C1003.79 309.271 1002.82 309.537 1002.06 310.071C1001.3 310.604 1000.73 311.344 1000.36 312.291C999.997 313.237 999.817 314.337 999.817 315.591C999.817 317.524 1000.25 319.064 1001.12 320.211C1002 321.344 1003.28 321.911 1004.98 321.911ZM824.283 381.391L831.803 370.591L824.803 359.791H830.723L837.243 370.191V359.791H842.043V370.191L848.563 359.791H854.483L847.483 370.591L855.003 381.391H848.723L842.043 370.991V381.391H837.243V370.991L830.563 381.391H824.283ZM858.665 372.671V368.471H875.705V372.671H858.665ZM867.145 381.991C864.972 381.991 863.065 381.504 861.425 380.531C859.785 379.557 858.505 378.217 857.585 376.511C856.678 374.791 856.225 372.817 856.225 370.591C856.225 368.337 856.692 366.357 857.625 364.651C858.558 362.931 859.845 361.591 861.485 360.631C863.125 359.671 865.012 359.191 867.145 359.191C869.318 359.191 871.225 359.677 872.865 360.651C874.518 361.624 875.805 362.971 876.725 364.691C877.645 366.397 878.105 368.364 878.105 370.591C878.105 372.831 877.638 374.811 876.705 376.531C875.785 378.237 874.498 379.577 872.845 380.551C871.205 381.511 869.305 381.991 867.145 381.991ZM867.145 376.911C868.892 376.911 870.192 376.324 871.045 375.151C871.912 373.964 872.345 372.444 872.345 370.591C872.345 368.671 871.905 367.137 871.025 365.991C870.158 364.844 868.865 364.271 867.145 364.271C865.958 364.271 864.985 364.537 864.225 365.071C863.465 365.604 862.898 366.344 862.525 367.291C862.165 368.237 861.985 369.337 861.985 370.591C861.985 372.524 862.418 374.064 863.285 375.211C864.165 376.344 865.452 376.911 867.145 376.911ZM882.463 381.391V359.791H887.903V368.031H896.783V359.791H902.223V381.391H896.783V373.111H887.903V381.391H882.463ZM906.216 386.191V377.191C907.362 377.191 908.176 376.791 908.656 375.991C909.149 375.191 909.536 373.764 909.816 371.711C909.976 370.524 910.109 369.277 910.216 367.971C910.336 366.664 910.436 365.324 910.516 363.951C910.596 362.577 910.669 361.191 910.736 359.791H927.416V377.191H929.616V386.191H924.496V381.391H911.336V386.191H906.216ZM913.176 377.191H921.976V363.991H915.456C915.416 364.724 915.369 365.457 915.316 366.191C915.276 366.924 915.222 367.651 915.156 368.371C915.102 369.091 915.049 369.791 914.996 370.471C914.942 371.137 914.882 371.777 914.816 372.391C914.696 373.564 914.529 374.517 914.316 375.251C914.102 375.984 913.722 376.631 913.176 377.191ZM934.837 372.671V368.471H951.877V372.671H934.837ZM943.317 381.991C941.144 381.991 939.237 381.504 937.597 380.531C935.957 379.557 934.677 378.217 933.757 376.511C932.85 374.791 932.397 372.817 932.397 370.591C932.397 368.337 932.864 366.357 933.797 364.651C934.73 362.931 936.017 361.591 937.657 360.631C939.297 359.671 941.184 359.191 943.317 359.191C945.49 359.191 947.397 359.677 949.037 360.651C950.69 361.624 951.977 362.971 952.897 364.691C953.817 366.397 954.277 368.364 954.277 370.591C954.277 372.831 953.81 374.811 952.877 376.531C951.957 378.237 950.67 379.577 949.017 380.551C947.377 381.511 945.477 381.991 943.317 381.991ZM943.317 376.911C945.064 376.911 946.364 376.324 947.217 375.151C948.084 373.964 948.517 372.444 948.517 370.591C948.517 368.671 948.077 367.137 947.197 365.991C946.33 364.844 945.037 364.271 943.317 364.271C942.13 364.271 941.157 364.537 940.397 365.071C939.637 365.604 939.07 366.344 938.697 367.291C938.337 368.237 938.157 369.337 938.157 370.591C938.157 372.524 938.59 374.064 939.457 375.211C940.337 376.344 941.624 376.911 943.317 376.911ZM958.635 381.391V359.791H963.035L970.555 373.791L978.075 359.791H982.475V381.391H977.275V370.631L971.515 381.391H969.595L963.835 370.631V381.391H958.635ZM986.489 386.191V377.191C987.636 377.191 988.449 376.791 988.929 375.991C989.422 375.191 989.809 373.764 990.089 371.711C990.249 370.524 990.382 369.277 990.489 367.971C990.609 366.664 990.709 365.324 990.789 363.951C990.869 362.577 990.942 361.191 991.009 359.791H1007.69V377.191H1009.89V386.191H1004.77V381.391H991.609V386.191H986.489ZM993.449 377.191H1002.25V363.991H995.729C995.689 364.724 995.642 365.457 995.589 366.191C995.549 366.924 995.496 367.651 995.429 368.371C995.376 369.091 995.322 369.791 995.269 370.471C995.216 371.137 995.156 371.777 995.089 372.391C994.969 373.564 994.802 374.517 994.589 375.251C994.376 375.984 993.996 376.631 993.449 377.191ZM1015.11 372.671V368.471H1032.15V372.671H1015.11ZM1023.59 381.991C1021.42 381.991 1019.51 381.504 1017.87 380.531C1016.23 379.557 1014.95 378.217 1014.03 376.511C1013.12 374.791 1012.67 372.817 1012.67 370.591C1012.67 368.337 1013.14 366.357 1014.07 364.651C1015 362.931 1016.29 361.591 1017.93 360.631C1019.57 359.671 1021.46 359.191 1023.59 359.191C1025.76 359.191 1027.67 359.677 1029.31 360.651C1030.96 361.624 1032.25 362.971 1033.17 364.691C1034.09 366.397 1034.55 368.364 1034.55 370.591C1034.55 372.831 1034.08 374.811 1033.15 376.531C1032.23 378.237 1030.94 379.577 1029.29 380.551C1027.65 381.511 1025.75 381.991 1023.59 381.991ZM1023.59 376.911C1025.34 376.911 1026.64 376.324 1027.49 375.151C1028.36 373.964 1028.79 372.444 1028.79 370.591C1028.79 368.671 1028.35 367.137 1027.47 365.991C1026.6 364.844 1025.31 364.271 1023.59 364.271C1022.4 364.271 1021.43 364.537 1020.67 365.071C1019.91 365.604 1019.34 366.344 1018.97 367.291C1018.61 368.237 1018.43 369.337 1018.43 370.591C1018.43 372.524 1018.86 374.064 1019.73 375.211C1020.61 376.344 1021.9 376.911 1023.59 376.911ZM1049.55 381.991C1047.4 381.991 1045.61 381.491 1044.17 380.491C1042.73 379.491 1041.64 378.131 1040.91 376.411C1040.19 374.691 1039.83 372.751 1039.83 370.591C1039.83 368.431 1040.19 366.491 1040.91 364.771C1041.63 363.051 1042.69 361.691 1044.09 360.691C1045.49 359.691 1047.22 359.191 1049.27 359.191C1051.34 359.191 1053.14 359.684 1054.67 360.671C1056.2 361.657 1057.39 363.011 1058.23 364.731C1059.08 366.437 1059.51 368.391 1059.51 370.591C1059.51 372.751 1059.09 374.691 1058.25 376.411C1057.42 378.131 1056.26 379.491 1054.77 380.491C1053.28 381.491 1051.54 381.991 1049.55 381.991ZM1038.91 390.991V359.791H1043.71V374.591H1044.39V390.991H1038.91ZM1048.67 377.151C1049.84 377.151 1050.8 376.857 1051.55 376.271C1052.3 375.684 1052.85 374.897 1053.21 373.911C1053.57 372.911 1053.75 371.804 1053.75 370.591C1053.75 369.391 1053.56 368.297 1053.19 367.311C1052.82 366.311 1052.24 365.517 1051.45 364.931C1050.68 364.331 1049.68 364.031 1048.47 364.031C1047.34 364.031 1046.42 364.304 1045.71 364.851C1045.02 365.397 1044.51 366.164 1044.19 367.151C1043.87 368.137 1043.71 369.284 1043.71 370.591C1043.71 371.897 1043.87 373.044 1044.19 374.031C1044.51 375.017 1045.03 375.784 1045.75 376.331C1046.48 376.877 1047.46 377.151 1048.67 377.151Z" fill="#191A1B"/>
<path d="M534.519 743.391L543.319 714.591H551.439L560.239 743.391H554.639L546.799 717.991H547.839L540.119 743.391H534.519ZM539.799 737.391V732.311H554.999V737.391H539.799ZM572.583 743.991C570.597 743.991 568.857 743.491 567.363 742.491C565.87 741.491 564.703 740.131 563.863 738.411C563.037 736.691 562.623 734.751 562.623 732.591C562.623 730.391 563.043 728.437 563.883 726.731C564.737 725.011 565.93 723.657 567.463 722.671C568.997 721.684 570.797 721.191 572.863 721.191C574.917 721.191 576.643 721.691 578.043 722.691C579.443 723.691 580.503 725.051 581.223 726.771C581.943 728.491 582.303 730.431 582.303 732.591C582.303 734.751 581.937 736.691 581.203 738.411C580.483 740.131 579.403 741.491 577.963 742.491C576.523 743.491 574.73 743.991 572.583 743.991ZM573.463 739.151C574.677 739.151 575.643 738.877 576.363 738.331C577.097 737.784 577.623 737.017 577.943 736.031C578.263 735.044 578.423 733.897 578.423 732.591C578.423 731.284 578.263 730.137 577.943 729.151C577.623 728.164 577.11 727.397 576.403 726.851C575.71 726.304 574.797 726.031 573.663 726.031C572.45 726.031 571.45 726.331 570.663 726.931C569.89 727.517 569.317 728.311 568.943 729.311C568.57 730.297 568.383 731.391 568.383 732.591C568.383 733.804 568.563 734.911 568.923 735.911C569.283 736.897 569.837 737.684 570.583 738.271C571.33 738.857 572.29 739.151 573.463 739.151ZM578.423 743.391V728.591H577.743V714.591H583.223V743.391H578.423ZM594.663 743.391L586.823 721.791H592.263L597.383 736.751L602.503 721.791H607.943L600.103 743.391H594.663ZM616.347 743.991C614.8 743.991 613.487 743.697 612.407 743.111C611.34 742.511 610.527 741.717 609.967 740.731C609.42 739.731 609.147 738.631 609.147 737.431C609.147 736.431 609.3 735.517 609.607 734.691C609.914 733.864 610.407 733.137 611.087 732.511C611.78 731.871 612.707 731.337 613.867 730.911C614.667 730.617 615.62 730.357 616.727 730.131C617.834 729.904 619.087 729.691 620.487 729.491C621.887 729.277 623.427 729.044 625.107 728.791L623.147 729.871C623.147 728.591 622.84 727.651 622.227 727.051C621.614 726.451 620.587 726.151 619.147 726.151C618.347 726.151 617.514 726.344 616.647 726.731C615.78 727.117 615.174 727.804 614.827 728.791L609.907 727.231C610.454 725.444 611.48 723.991 612.987 722.871C614.494 721.751 616.547 721.191 619.147 721.191C621.054 721.191 622.747 721.484 624.227 722.071C625.707 722.657 626.827 723.671 627.587 725.111C628.014 725.911 628.267 726.711 628.347 727.511C628.427 728.311 628.467 729.204 628.467 730.191V743.391H623.707V738.951L624.387 739.871C623.334 741.324 622.194 742.377 620.967 743.031C619.754 743.671 618.214 743.991 616.347 743.991ZM617.507 739.711C618.507 739.711 619.347 739.537 620.027 739.191C620.72 738.831 621.267 738.424 621.667 737.971C622.08 737.517 622.36 737.137 622.507 736.831C622.787 736.244 622.947 735.564 622.987 734.791C623.04 734.004 623.067 733.351 623.067 732.831L624.667 733.231C623.054 733.497 621.747 733.724 620.747 733.911C619.747 734.084 618.94 734.244 618.327 734.391C617.714 734.537 617.174 734.697 616.707 734.871C616.174 735.084 615.74 735.317 615.407 735.571C615.087 735.811 614.847 736.077 614.687 736.371C614.54 736.664 614.467 736.991 614.467 737.351C614.467 737.844 614.587 738.271 614.827 738.631C615.08 738.977 615.434 739.244 615.887 739.431C616.34 739.617 616.88 739.711 617.507 739.711ZM648.387 743.391V733.191C648.387 732.697 648.361 732.071 648.307 731.311C648.254 730.537 648.087 729.764 647.807 728.991C647.527 728.217 647.067 727.571 646.427 727.051C645.801 726.531 644.907 726.271 643.747 726.271C643.281 726.271 642.781 726.344 642.247 726.491C641.714 726.637 641.214 726.924 640.747 727.351C640.281 727.764 639.894 728.377 639.587 729.191C639.294 730.004 639.147 731.084 639.147 732.431L636.027 730.951C636.027 729.244 636.374 727.644 637.067 726.151C637.761 724.657 638.801 723.451 640.187 722.531C641.587 721.611 643.347 721.151 645.467 721.151C647.161 721.151 648.541 721.437 649.607 722.011C650.674 722.584 651.501 723.311 652.087 724.191C652.687 725.071 653.114 725.991 653.367 726.951C653.621 727.897 653.774 728.764 653.827 729.551C653.881 730.337 653.907 730.911 653.907 731.271V743.391H648.387ZM633.627 743.391V721.791H638.467V728.951H639.147V743.391H633.627ZM668.226 743.991C665.986 743.991 664.066 743.491 662.466 742.491C660.866 741.491 659.64 740.131 658.786 738.411C657.933 736.691 657.506 734.751 657.506 732.591C657.506 730.404 657.946 728.451 658.826 726.731C659.72 725.011 660.973 723.657 662.586 722.671C664.2 721.684 666.106 721.191 668.306 721.191C670.853 721.191 672.986 721.837 674.706 723.131C676.44 724.411 677.546 726.164 678.026 728.391L672.586 729.831C672.266 728.711 671.706 727.837 670.906 727.211C670.12 726.584 669.226 726.271 668.226 726.271C667.08 726.271 666.14 726.551 665.406 727.111C664.673 727.657 664.133 728.411 663.786 729.371C663.44 730.317 663.266 731.391 663.266 732.591C663.266 734.471 663.68 735.997 664.506 737.171C665.346 738.331 666.586 738.911 668.226 738.911C669.453 738.911 670.386 738.631 671.026 738.071C671.666 737.511 672.146 736.711 672.466 735.671L678.026 736.831C677.413 739.124 676.253 740.891 674.546 742.131C672.84 743.371 670.733 743.991 668.226 743.991ZM691.481 743.991C689.267 743.991 687.314 743.517 685.621 742.571C683.941 741.611 682.621 740.297 681.661 738.631C680.714 736.951 680.241 735.031 680.241 732.871C680.241 730.511 680.707 728.457 681.641 726.711C682.574 724.964 683.861 723.611 685.501 722.651C687.141 721.677 689.027 721.191 691.161 721.191C693.427 721.191 695.354 721.724 696.941 722.791C698.527 723.857 699.701 725.357 700.461 727.291C701.221 729.224 701.487 731.497 701.261 734.111H695.881V732.111C695.881 729.911 695.527 728.331 694.821 727.371C694.127 726.397 692.987 725.911 691.401 725.911C689.547 725.911 688.181 726.477 687.301 727.611C686.434 728.731 686.001 730.391 686.001 732.591C686.001 734.604 686.434 736.164 687.301 737.271C688.181 738.364 689.467 738.911 691.161 738.911C692.227 738.911 693.141 738.677 693.901 738.211C694.661 737.744 695.241 737.071 695.641 736.191L701.081 737.751C700.267 739.724 698.981 741.257 697.221 742.351C695.474 743.444 693.561 743.991 691.481 743.991ZM684.321 734.111V730.071H698.641V734.111H684.321ZM714.537 743.991C712.55 743.991 710.81 743.491 709.317 742.491C707.823 741.491 706.657 740.131 705.817 738.411C704.99 736.691 704.577 734.751 704.577 732.591C704.577 730.391 704.997 728.437 705.837 726.731C706.69 725.011 707.883 723.657 709.417 722.671C710.95 721.684 712.75 721.191 714.817 721.191C716.87 721.191 718.597 721.691 719.997 722.691C721.397 723.691 722.457 725.051 723.177 726.771C723.897 728.491 724.257 730.431 724.257 732.591C724.257 734.751 723.89 736.691 723.157 738.411C722.437 740.131 721.357 741.491 719.917 742.491C718.477 743.491 716.683 743.991 714.537 743.991ZM715.417 739.151C716.63 739.151 717.597 738.877 718.317 738.331C719.05 737.784 719.577 737.017 719.897 736.031C720.217 735.044 720.377 733.897 720.377 732.591C720.377 731.284 720.217 730.137 719.897 729.151C719.577 728.164 719.063 727.397 718.357 726.851C717.663 726.304 716.75 726.031 715.617 726.031C714.403 726.031 713.403 726.331 712.617 726.931C711.843 727.517 711.27 728.311 710.897 729.311C710.523 730.297 710.337 731.391 710.337 732.591C710.337 733.804 710.517 734.911 710.877 735.911C711.237 736.897 711.79 737.684 712.537 738.271C713.283 738.857 714.243 739.151 715.417 739.151ZM720.377 743.391V728.591H719.697V714.591H725.177V743.391H720.377ZM749.664 743.991C747.531 743.991 745.604 743.617 743.884 742.871C742.178 742.111 740.771 741.031 739.664 739.631C738.571 738.217 737.878 736.537 737.584 734.591L743.264 733.751C743.664 735.404 744.491 736.677 745.744 737.571C746.998 738.464 748.424 738.911 750.024 738.911C750.918 738.911 751.784 738.771 752.624 738.491C753.464 738.211 754.151 737.797 754.684 737.251C755.231 736.704 755.504 736.031 755.504 735.231C755.504 734.937 755.458 734.657 755.364 734.391C755.284 734.111 755.144 733.851 754.944 733.611C754.744 733.371 754.458 733.144 754.084 732.931C753.724 732.717 753.264 732.524 752.704 732.351L745.224 730.151C744.664 729.991 744.011 729.764 743.264 729.471C742.531 729.177 741.818 728.757 741.124 728.211C740.431 727.664 739.851 726.944 739.384 726.051C738.931 725.144 738.704 724.004 738.704 722.631C738.704 720.697 739.191 719.091 740.164 717.811C741.138 716.531 742.438 715.577 744.064 714.951C745.691 714.324 747.491 714.017 749.464 714.031C751.451 714.057 753.224 714.397 754.784 715.051C756.344 715.704 757.651 716.657 758.704 717.911C759.758 719.151 760.518 720.671 760.984 722.471L755.104 723.471C754.891 722.537 754.498 721.751 753.924 721.111C753.351 720.471 752.664 719.984 751.864 719.651C751.078 719.317 750.251 719.137 749.384 719.111C748.531 719.084 747.724 719.204 746.964 719.471C746.218 719.724 745.604 720.097 745.124 720.591C744.658 721.084 744.424 721.671 744.424 722.351C744.424 722.977 744.618 723.491 745.004 723.891C745.391 724.277 745.878 724.591 746.464 724.831C747.051 725.071 747.651 725.271 748.264 725.431L753.264 726.791C754.011 726.991 754.838 727.257 755.744 727.591C756.651 727.911 757.518 728.364 758.344 728.951C759.184 729.524 759.871 730.284 760.404 731.231C760.951 732.177 761.224 733.377 761.224 734.831C761.224 736.377 760.898 737.731 760.244 738.891C759.604 740.037 758.738 740.991 757.644 741.751C756.551 742.497 755.311 743.057 753.924 743.431C752.551 743.804 751.131 743.991 749.664 743.991ZM765.58 743.391L765.62 714.591H771.14V732.191L778.46 721.791H785.18L777.38 732.591L785.7 743.391H778.62L771.14 732.991V743.391H765.58ZM788.091 718.791V713.991H793.531V718.791H788.091ZM788.091 743.391V721.791H793.531V743.391H788.091ZM799.927 743.391V713.991H805.367V743.391H799.927ZM811.763 743.391V713.991H817.203V743.391H811.763ZM831.638 743.991C828.918 743.991 826.718 743.377 825.038 742.151C823.372 740.911 822.358 739.164 821.998 736.911L827.558 736.071C827.785 737.084 828.285 737.877 829.058 738.451C829.845 739.024 830.838 739.311 832.038 739.311C833.025 739.311 833.785 739.124 834.318 738.751C834.852 738.364 835.118 737.831 835.118 737.151C835.118 736.724 835.012 736.384 834.798 736.131C834.585 735.864 834.105 735.604 833.358 735.351C832.625 735.097 831.478 734.764 829.918 734.351C828.158 733.897 826.752 733.391 825.698 732.831C824.645 732.271 823.885 731.604 823.418 730.831C822.952 730.044 822.718 729.097 822.718 727.991C822.718 726.604 823.072 725.404 823.778 724.391C824.485 723.364 825.478 722.577 826.758 722.031C828.052 721.471 829.572 721.191 831.318 721.191C833.012 721.191 834.512 721.451 835.818 721.971C837.125 722.491 838.178 723.231 838.978 724.191C839.792 725.151 840.292 726.284 840.478 727.591L834.918 728.591C834.825 727.791 834.478 727.157 833.878 726.691C833.278 726.224 832.465 725.951 831.438 725.871C830.438 725.804 829.632 725.937 829.018 726.271C828.418 726.604 828.118 727.084 828.118 727.711C828.118 728.084 828.245 728.397 828.498 728.651C828.765 728.904 829.305 729.164 830.118 729.431C830.945 729.697 832.198 730.044 833.878 730.471C835.518 730.897 836.832 731.397 837.818 731.971C838.818 732.531 839.545 733.211 839.998 734.011C840.452 734.797 840.678 735.751 840.678 736.871C840.678 739.084 839.878 740.824 838.278 742.091C836.678 743.357 834.465 743.991 831.638 743.991Z" fill="#161616"/>
<rect x="430.578" y="329.391" width="56" height="56" rx="28" fill="#161616"/>
<path d="M453.216 367.781C452.003 367.781 450.919 367.508 449.966 366.962C449.021 366.407 448.272 365.657 447.717 364.713C447.171 363.759 446.898 362.676 446.898 361.463V354.599C446.898 353.385 447.171 352.302 447.717 351.349C448.272 350.395 449.021 349.646 449.966 349.1C450.919 348.554 452.003 348.281 453.216 348.281C454.429 348.281 455.513 348.554 456.466 349.1C457.419 349.646 458.169 350.395 458.715 351.349C459.261 352.302 459.534 353.385 459.534 354.599V361.463C459.534 362.676 459.261 363.759 458.715 364.713C458.169 365.657 457.419 366.407 456.466 366.962C455.513 367.508 454.429 367.781 453.216 367.781ZM453.216 365.558C453.953 365.558 454.62 365.38 455.218 365.025C455.816 364.669 456.293 364.193 456.648 363.595C457.003 362.988 457.181 362.321 457.181 361.593V354.456C457.181 353.719 457.003 353.052 456.648 352.454C456.293 351.856 455.816 351.379 455.218 351.024C454.62 350.668 453.953 350.491 453.216 350.491C452.488 350.491 451.821 350.668 451.214 351.024C450.616 351.379 450.139 351.856 449.784 352.454C449.429 353.052 449.251 353.719 449.251 354.456V361.593C449.251 362.321 449.429 362.988 449.784 363.595C450.139 364.193 450.616 364.669 451.214 365.025C451.821 365.38 452.488 365.558 453.216 365.558ZM466.437 367.391V351.232L462.914 353.364V350.777L466.437 348.671H468.79V367.391H466.437Z" fill="white"/>
<rect x="930.996" y="177.391" width="56" height="56" rx="28" fill="#161616"/>
<path d="M951.134 215.781C949.921 215.781 948.837 215.508 947.884 214.962C946.939 214.407 946.19 213.657 945.635 212.713C945.089 211.759 944.816 210.676 944.816 209.463V202.599C944.816 201.385 945.089 200.302 945.635 199.349C946.19 198.395 946.939 197.646 947.884 197.1C948.837 196.554 949.921 196.281 951.134 196.281C952.347 196.281 953.431 196.554 954.384 197.1C955.337 197.646 956.087 198.395 956.633 199.349C957.179 200.302 957.452 201.385 957.452 202.599V209.463C957.452 210.676 957.179 211.759 956.633 212.713C956.087 213.657 955.337 214.407 954.384 214.962C953.431 215.508 952.347 215.781 951.134 215.781ZM951.134 213.558C951.871 213.558 952.538 213.38 953.136 213.025C953.734 212.669 954.211 212.193 954.566 211.595C954.921 210.988 955.099 210.321 955.099 209.593V202.456C955.099 201.719 954.921 201.052 954.566 200.454C954.211 199.856 953.734 199.379 953.136 199.024C952.538 198.668 951.871 198.491 951.134 198.491C950.406 198.491 949.739 198.668 949.132 199.024C948.534 199.379 948.057 199.856 947.702 200.454C947.347 201.052 947.169 201.719 947.169 202.456V209.593C947.169 210.321 947.347 210.988 947.702 211.595C948.057 212.193 948.534 212.669 949.132 213.025C949.739 213.38 950.406 213.558 951.134 213.558ZM960.571 215.378L960.584 213.298L968.891 205.823C969.585 205.199 970.048 204.609 970.282 204.055C970.525 203.491 970.646 202.915 970.646 202.326C970.646 201.606 970.482 200.956 970.152 200.376C969.823 199.795 969.372 199.336 968.8 198.998C968.237 198.66 967.596 198.491 966.876 198.491C966.131 198.491 965.468 198.668 964.887 199.024C964.307 199.37 963.847 199.834 963.509 200.415C963.18 200.995 963.02 201.628 963.028 202.313H960.662C960.662 201.134 960.935 200.094 961.481 199.193C962.027 198.283 962.768 197.572 963.704 197.061C964.649 196.541 965.719 196.281 966.915 196.281C968.077 196.281 969.117 196.549 970.035 197.087C970.954 197.615 971.678 198.339 972.206 199.258C972.744 200.168 973.012 201.199 973.012 202.352C973.012 203.166 972.908 203.873 972.7 204.471C972.501 205.069 972.189 205.623 971.764 206.135C971.34 206.637 970.807 207.175 970.165 207.747L963.262 213.948L962.963 213.168H973.012V215.378H960.571Z" fill="white"/>
<rect x="659.996" y="601.391" width="56" height="56" rx="28" fill="#161616"/>
<path d="M680.634 639.781C679.421 639.781 678.337 639.508 677.384 638.962C676.439 638.407 675.69 637.657 675.135 636.713C674.589 635.759 674.316 634.676 674.316 633.463V626.599C674.316 625.385 674.589 624.302 675.135 623.349C675.69 622.395 676.439 621.646 677.384 621.1C678.337 620.554 679.421 620.281 680.634 620.281C681.847 620.281 682.931 620.554 683.884 621.1C684.837 621.646 685.587 622.395 686.133 623.349C686.679 624.302 686.952 625.385 686.952 626.599V633.463C686.952 634.676 686.679 635.759 686.133 636.713C685.587 637.657 684.837 638.407 683.884 638.962C682.931 639.508 681.847 639.781 680.634 639.781ZM680.634 637.558C681.371 637.558 682.038 637.38 682.636 637.025C683.234 636.669 683.711 636.193 684.066 635.595C684.421 634.988 684.599 634.321 684.599 633.593V626.456C684.599 625.719 684.421 625.052 684.066 624.454C683.711 623.856 683.234 623.379 682.636 623.024C682.038 622.668 681.371 622.491 680.634 622.491C679.906 622.491 679.239 622.668 678.632 623.024C678.034 623.379 677.557 623.856 677.202 624.454C676.847 625.052 676.669 625.719 676.669 626.456V633.593C676.669 634.321 676.847 634.988 677.202 635.595C677.557 636.193 678.034 636.669 678.632 637.025C679.239 637.38 679.906 637.558 680.634 637.558ZM695.726 639.755C694.799 639.755 693.937 639.586 693.139 639.248C692.342 638.901 691.653 638.416 691.072 637.792C690.5 637.159 690.08 636.409 689.811 635.543L692.034 634.906C692.32 635.772 692.797 636.431 693.464 636.882C694.132 637.332 694.881 637.553 695.713 637.545C696.476 637.527 697.135 637.354 697.689 637.025C698.253 636.687 698.686 636.227 698.989 635.647C699.301 635.066 699.457 634.394 699.457 633.632C699.457 632.47 699.111 631.53 698.417 630.811C697.724 630.083 696.814 629.719 695.687 629.719C695.375 629.719 695.046 629.762 694.699 629.849C694.361 629.935 694.045 630.057 693.75 630.213L692.632 628.38L699.574 622.101L699.873 622.881H690.552V620.671H701.589V622.894L695.674 628.562L695.648 627.743C696.888 627.656 697.971 627.86 698.898 628.354C699.826 628.848 700.545 629.554 701.056 630.473C701.576 631.391 701.836 632.444 701.836 633.632C701.836 634.828 701.568 635.885 701.03 636.804C700.493 637.722 699.765 638.446 698.846 638.975C697.928 639.495 696.888 639.755 695.726 639.755Z" fill="white"/>
</svg>
