<svg width="26" height="26" viewBox="0 0 26 26" fill="none" xmlns="http://www.w3.org/2000/svg">
<path fill-rule="evenodd" clip-rule="evenodd" d="M11.3643 4.10333C12.4309 3.03672 13.8775 2.4375 15.3859 2.4375H18.3109C18.7597 2.4375 19.1234 2.80127 19.1234 3.25V7.15C19.1234 7.59873 18.7597 7.9625 18.3109 7.9625H15.3859C15.3428 7.9625 15.3015 7.97962 15.271 8.0101C15.2406 8.04057 15.2234 8.0819 15.2234 8.125V10.2375H18.3109C18.5611 10.2375 18.7974 10.3528 18.9514 10.55C19.1053 10.7472 19.1599 11.0043 19.0992 11.2471L18.1242 15.1471C18.0338 15.5088 17.7088 15.7625 17.3359 15.7625H15.2234V22.75C15.2234 23.1987 14.8597 23.5625 14.4109 23.5625H10.5109C10.0622 23.5625 9.69844 23.1987 9.69844 22.75V15.7625H7.58594C7.13721 15.7625 6.77344 15.3987 6.77344 14.95V11.05C6.77344 10.6013 7.13721 10.2375 7.58594 10.2375H9.69844V8.125C9.69844 6.61658 10.2977 5.16994 11.3643 4.10333ZM15.3859 4.0625C14.3085 4.0625 13.2752 4.49051 12.5133 5.25238C11.7514 6.01425 11.3234 7.04756 11.3234 8.125V11.05C11.3234 11.4987 10.9597 11.8625 10.5109 11.8625H8.39844V14.1375H10.5109C10.9597 14.1375 11.3234 14.5013 11.3234 14.95V21.9375H13.5984V14.95C13.5984 14.5013 13.9622 14.1375 14.4109 14.1375H16.7016L17.2703 11.8625H14.4109C13.9622 11.8625 13.5984 11.4987 13.5984 11.05V8.125C13.5984 7.65093 13.7868 7.19627 14.122 6.86105C14.4572 6.52583 14.9119 6.3375 15.3859 6.3375H17.4984V4.0625H15.3859Z" fill="#161616"/>
</svg>
