<svg width="26" height="26" viewBox="0 0 26 26" fill="none" xmlns="http://www.w3.org/2000/svg">
<path fill-rule="evenodd" clip-rule="evenodd" d="M6.26962 15.1874C6.31616 15.2029 6.36403 15.2142 6.41262 15.221C6.71912 15.9432 7.02389 16.6662 7.32695 17.3898C7.87187 18.692 8.42112 20.0332 8.54137 20.4188C8.69195 20.8933 8.85012 21.2162 9.02345 21.4372C9.11337 21.5498 9.21628 21.6495 9.33762 21.7253C9.40082 21.7649 9.46845 21.7969 9.53912 21.8207C9.88578 21.9507 10.2021 21.8965 10.4004 21.8304C10.5167 21.7907 10.6274 21.7361 10.7297 21.6679L10.7351 21.6658L13.7966 19.7569L17.3337 22.4674C17.3857 22.5075 17.442 22.5411 17.5027 22.5682C17.9274 22.7523 18.339 22.8173 18.7269 22.7653C19.1125 22.7112 19.4191 22.5498 19.6477 22.3667C19.9102 22.1551 20.1194 21.885 20.2587 21.578L20.2684 21.5542L20.2717 21.5455L20.2739 21.5412V21.539L20.275 21.5379C20.2938 21.4913 20.3083 21.4431 20.3183 21.3938L23.5466 5.11676C23.5568 5.06465 23.5619 5.01168 23.5618 4.95859C23.5618 4.48192 23.382 4.02801 22.9605 3.75392C22.5987 3.51884 22.1968 3.50801 21.9422 3.52751C21.6692 3.54917 21.4157 3.61634 21.2456 3.67051C21.1504 3.70068 21.0564 3.73465 20.9639 3.77234L20.952 3.77776L2.8452 10.8801L2.84303 10.8812C2.78177 10.9037 2.72142 10.9286 2.66212 10.9559C2.51853 11.0205 2.3808 11.0973 2.25045 11.1856C2.00453 11.3535 1.43795 11.815 1.53437 12.5777C1.6102 13.1843 2.0262 13.5581 2.28078 13.7379C2.41945 13.8365 2.55162 13.9069 2.64912 13.9535C2.69245 13.9752 2.78562 14.012 2.8257 14.0293L2.83653 14.0326L6.26962 15.1874ZM21.5858 5.27276H21.5836C21.5743 5.2769 21.5649 5.28087 21.5555 5.28467L3.42695 12.3968C3.41762 12.4005 3.40823 12.4041 3.39878 12.4076L3.38795 12.4108C3.35483 12.4239 3.3223 12.4383 3.29045 12.4542C3.3206 12.4714 3.35171 12.487 3.38362 12.5008L6.78745 13.6469C6.84828 13.6674 6.90646 13.6951 6.96078 13.7293L18.2025 7.14801L18.2134 7.14259C18.257 7.11605 18.3019 7.09147 18.3477 7.06892C18.4257 7.02884 18.5503 6.97034 18.6911 6.92701C18.7886 6.89667 19.0779 6.81109 19.3899 6.91184C19.5554 6.964 19.7028 7.06165 19.8155 7.19364C19.9281 7.32562 20.0014 7.48663 20.0269 7.65826C20.0672 7.80857 20.0683 7.96672 20.0301 8.11759C19.9543 8.41551 19.7463 8.64734 19.5556 8.82501C19.3931 8.97667 17.286 11.009 15.2071 13.0153L12.3764 15.7453L11.8726 16.2328L18.234 21.11C18.3198 21.146 18.4131 21.1609 18.5059 21.1533C18.5526 21.147 18.5966 21.1275 18.6326 21.097C18.6765 21.0599 18.7142 21.016 18.7442 20.967L18.7464 20.9659L21.8772 5.17851C21.7786 5.20223 21.6819 5.23337 21.5879 5.27167L21.5858 5.27276ZM12.4197 18.6996L11.15 17.7268L10.8424 19.6822L12.4197 18.6996ZM9.98545 15.7963L11.2475 14.5775L14.0783 11.8453L15.1324 10.8292L8.06903 14.9643L8.10695 15.0531C8.55242 16.1055 8.99298 17.1599 9.42862 18.2164L9.7352 16.2664C9.76294 16.0856 9.85116 15.9205 9.98545 15.7963Z" fill="#161616"/>
</svg>
