<svg width="394" height="208" viewBox="0 0 394 208" fill="none" xmlns="http://www.w3.org/2000/svg">
<path opacity="0.7" d="M251.897 205.242C250.098 205.242 248.3 205.328 246.51 205.219C245.048 205.125 244.336 206.916 242.616 206.4C241.295 206.001 239.762 206.321 238.324 206.321H230.239C228.801 206.321 227.362 206.321 225.923 206.321C224.884 206.321 223.859 206.157 222.999 207.174C222.679 207.549 221.67 207.392 220.974 207.392C204.978 207.4 188.981 207.393 172.992 207.4C171.929 207.4 170.944 207.463 170.091 206.493C169.763 206.126 168.747 206.329 168.043 206.329C163.188 206.321 158.34 206.392 153.485 206.29C151.804 206.259 149.927 207.002 148.473 205.344C148.231 205.07 147.449 205.258 146.917 205.25C145.119 205.25 143.321 205.25 141.522 205.25C140.084 205.25 138.606 205.047 137.222 205.305C135.643 205.602 134.814 204.007 133.344 204.148C132.101 204.265 130.827 204.171 129.576 204.171C128.137 204.171 126.698 204.156 125.26 204.171C124.173 204.187 123.759 202.787 122.461 203.038C121.249 203.272 119.951 203.084 118.7 203.084C117.621 203.084 116.276 203.499 115.51 203.006C112.86 201.302 110.022 202.248 107.277 202.029C105.893 201.92 105.057 200.426 103.391 200.856C102.039 201.2 100.538 200.927 99.0991 200.927C97.3399 199.167 95.1195 199.996 93.071 199.863C91.8435 199.785 91.1945 198.378 89.7325 198.714C88.5362 198.988 87.2306 198.769 85.9718 198.769C84.6348 196.97 82.7114 197.862 81.0226 197.713C79.9515 197.619 79.5215 196.29 78.2236 196.564C77.2074 196.783 76.0971 196.564 75.026 196.54C73.8532 194.859 72.0862 195.579 70.5929 195.594C69.2637 195.61 68.7399 193.96 67.2466 194.406C66.2614 194.703 65.3154 194.343 64.3537 193.593C63.6735 193.061 61.969 193.827 61.3123 193.296C59.8815 192.139 58.3882 192.342 56.8401 192.303C55.8706 190.809 54.2834 191.505 52.9934 191.161C51.7111 190.817 50.6244 189.77 49.1388 190.067C48.3883 188.683 46.7073 189.535 45.902 188.847C44.9481 188.034 43.9082 188.292 43.0247 187.909C41.9145 187.424 40.7965 187.15 39.7097 186.767C38.5916 186.376 37.6221 185.634 36.3321 185.829C35.6831 184.641 34.0725 185 33.3298 183.968C30.4056 183.593 28.0444 181.99 25.5581 180.591C24.5887 180.043 23.0484 180.763 22.29 179.394C20.351 179.777 20.0304 177.455 18.3651 177.096C17.1532 176.838 15.8788 176.181 14.8311 175.227C13.7053 174.203 12.251 173.53 11.1408 172.491C10.1166 171.529 9.00632 170.825 7.77096 170.176C6.87183 169.707 6.03525 168.8 5.60523 167.878C5.32376 167.276 5.16739 166.658 4.71392 166.087C3.8617 165.024 2.27454 164.484 2.29017 162.788C1.27376 161.889 1.13303 160.755 1.15649 159.457C1.1643 158.855 0.0853472 158.644 0.108803 157.745C0.17917 155.415 0.108803 153.077 0.17917 150.747C0.17917 150.489 0.804652 150.278 0.882837 149.973C1.28158 148.495 2.19635 147.276 2.83747 145.931C3.56459 144.414 3.70533 142.991 2.77492 141.545C1.77415 139.997 1.50832 138.05 0.132258 136.705C0.132258 134.547 0.147895 132.389 0.132258 130.231C0.116621 128.66 1.8367 127.565 1.30504 125.861C2.48564 125.024 2.36836 123.351 3.57241 122.468C4.57318 121.733 5.38631 120.732 6.26199 119.825C6.80146 119.262 6.82492 117.409 6.19162 116.932C3.15803 114.641 2.43091 110.92 0.499729 107.956C0.319903 107.683 0.171351 107.339 0.163532 107.026C0.132258 104.868 -0.102298 102.671 0.241718 100.576C0.452818 99.3169 1.53178 98.1911 1.32849 96.7368C2.48564 95.8846 2.3449 94.1645 3.6115 93.3592C4.20571 92.9761 4.581 92.6008 3.81479 91.819C2.17289 90.1458 2.64982 89.8956 1.10957 86.4946C-0.243031 83.5157 0.405907 80.6385 0.210444 77.7141C0.171351 77.1668 1.01575 76.6195 1.2034 76.0019C1.75069 74.2427 3.05639 72.851 3.46295 70.9902C3.62714 70.2474 4.66701 69.7158 5.27685 69.059C5.75378 68.5508 6.34799 68.066 6.58255 67.4484C7.01256 66.3147 5.5505 65.8378 5.41758 64.6884C5.31594 63.8362 4.10407 63.1169 3.38477 62.3351C2.8062 61.7018 1.3754 59.0356 1.26595 57.8316C1.14085 56.4477 -0.352491 55.6189 0.077529 53.9536C0.421544 52.6088 0.210444 51.092 0.12444 49.6612C0.0697104 48.6917 0.304266 47.9333 1.10176 47.3626C0.757741 46.0022 2.63419 45.447 2.30581 44.0866C3.61932 43.1328 3.4395 41.2719 4.87029 40.2555C6.45745 39.1297 7.74751 37.5581 9.10014 36.1117C10.4215 34.7044 12.5403 34.3838 13.6193 32.6872C15.3706 32.9218 15.7537 30.9671 17.0438 30.5449C19.4441 29.7552 21.4769 28.1994 23.8146 27.3628C24.7685 27.0266 25.3236 25.7131 26.5824 26.2056C27.1609 25.502 27.8099 24.9469 28.8028 25.0641C29.6238 23.2815 31.9928 24.8218 32.8685 23.1564C34.4087 23.0548 35.4486 21.2643 37.1999 21.8898C38.1069 20.9047 39.2328 20.5998 40.5306 20.8109C41.3672 19.6068 42.5947 19.6303 43.8535 19.7241C44.6197 18.3715 45.9645 18.7077 47.1529 18.5826C47.9113 16.9407 49.8425 18.1291 50.8355 17.058C51.8675 15.9399 53.5016 17.0814 54.3069 16.4168C55.5109 15.4082 57.0277 15.8148 58.0832 15.0877C58.8964 14.5248 59.6391 14.1416 60.4835 14.384C61.9143 14.7828 62.6493 13.438 63.822 13.2738C64.9948 13.1096 66.3474 13.7585 67.2778 12.4998C67.3716 12.3668 67.5436 12.2105 67.6844 12.2105C69.1074 12.1636 70.5381 12.1479 71.9611 12.1166C72.9463 10.5451 74.5725 10.9595 75.8469 11.1941C77.4732 11.4912 78.1378 9.6929 79.7404 9.95873C81.0226 10.1698 82.6333 10.5999 83.6497 9.07524C83.72 8.9736 83.9624 8.9736 84.1344 8.95796C85.8936 8.86414 87.6528 8.77032 89.4119 8.68431C90.874 7.0346 92.7895 7.98064 94.4705 7.94936C95.9404 7.91809 96.7692 6.43257 98.3485 6.75313C99.5526 6.9955 100.85 6.79222 102.101 6.7844C103.634 4.87668 105.753 6.01037 107.59 5.7289C108.927 5.52562 110.436 6.31529 111.593 4.91577C111.835 4.61867 112.57 4.72031 113.079 4.64994C115.627 4.32156 118.38 5.43961 120.741 3.59444C120.96 3.42243 121.444 3.60226 121.804 3.56317C124.72 3.25824 127.817 4.43884 130.522 2.49203C132.5 2.49203 134.478 2.53112 136.456 2.48421C138.395 2.4373 140.334 2.3122 142.273 2.21838C143.938 0.52958 146.01 1.64763 147.871 1.45998C149.826 1.2567 151.819 1.41307 153.798 1.41307C155.776 1.41307 157.754 1.45216 159.732 1.39743C160.928 1.36616 161.616 -0.0411716 163.07 0.279388C164.267 0.545218 165.572 0.334118 166.831 0.334118H178.152C194.329 0.334118 210.505 0.334118 226.674 0.334118C228.652 0.334118 230.622 0.334118 232.6 0.334118C234.125 2.25747 236.236 1.23324 238.089 1.37398C240.052 1.52253 242.037 1.40525 244.016 1.40525C245.994 1.40525 247.98 1.50689 249.942 1.37398C251.412 1.27234 252.1 3.05496 253.836 2.57021C255.337 2.14801 257.049 2.48421 258.667 2.48421C260.106 2.48421 261.568 2.3122 262.975 2.53112C264.633 2.78913 266.064 3.90718 267.932 3.6179C269.512 3.3677 271.193 3.37552 272.764 3.6179C274.242 3.85245 275.501 4.91577 277.182 4.68122C278.589 4.48575 280.121 4.36848 281.474 4.71249C282.944 5.08778 284.258 5.91654 285.899 5.74454C287.322 5.59598 288.777 5.68199 290.207 5.72108C291.404 5.76017 292.092 7.17533 293.546 6.84695C294.742 6.58112 296.048 6.79222 297.307 6.80004C298.831 8.73122 300.958 7.80863 302.795 7.79299C304.156 7.78517 304.64 9.3958 306.142 9.01269C307.322 8.70777 308.643 8.95014 309.902 8.95014C311.513 10.42 313.499 9.97437 315.383 10.0291C316.955 11.6866 318.995 10.9673 320.864 11.1081C322.248 12.6718 324.101 12.1557 325.805 12.1636C326.923 12.1636 327.298 13.5787 328.604 13.3285C329.55 13.1487 330.786 12.836 331.513 14.04C331.599 14.1729 331.779 14.3293 331.919 14.3371C332.983 14.384 334.179 14.1182 335.086 14.5091C335.844 14.8375 336.399 15.5177 337.408 15.4473C338.792 15.3535 339.66 17.144 341.278 16.5185C342.771 15.9399 343.561 18.0978 345.148 17.6053C346.251 17.2612 346.673 19.0595 347.932 18.6686C348.956 18.348 349.566 19.0908 350.176 19.7319C351.708 19.2081 352.818 20.7718 354.038 20.7014C355.609 20.6076 356.407 22.2495 357.916 21.9054C358.229 21.8351 358.807 21.8742 358.893 22.054C359.542 23.305 361.067 22.9062 362.005 23.8523C362.685 24.5403 364.46 23.7115 365.211 25.0876C366.641 24.5168 367.079 26.8155 368.51 26.2291C369.065 27.5504 370.715 27.05 371.551 28.0899C372.005 28.6528 373.021 28.7701 373.764 29.2001C375.038 29.9429 376.766 30.24 377.697 31.2642C378.823 32.5074 380.621 32.4605 381.543 33.8443C382.341 35.0406 384.022 34.9311 384.929 36.1117C385.797 37.2454 386.93 38.168 387.947 39.1844C388.83 40.0757 389.714 40.967 390.597 41.8583C390.089 43.2735 391.801 43.7739 391.887 45.1421C391.958 46.3305 393.568 47.3939 393.74 48.6135C394.061 50.9044 393.834 53.2734 393.834 55.6111C392.474 56.5337 393.193 58.3085 392.419 59.3171C391.575 60.4117 391.731 62.0927 390.206 62.7495C388.604 63.4375 388.737 65.439 387.564 66.518C387.329 66.7369 387.423 67.5188 387.618 67.9175C387.837 68.3788 388.291 68.7775 388.737 69.0668C390.277 70.0832 390.801 71.8268 391.598 73.2888C392.388 74.7274 393.381 76.2364 393.725 77.7688C394.178 79.8254 393.85 82.0536 393.826 84.2115C393.826 84.5399 393.787 85.0716 393.592 85.1654C392.091 85.9238 393.357 87.6986 392.427 88.4492C391.606 89.1059 391.934 90.0911 391.332 90.7244C390.746 91.342 390.191 91.991 389.628 92.6243C390.136 93.1325 390.863 93.5547 391.106 94.1645C391.668 95.5484 392.951 96.6665 392.747 98.3318C392.615 99.4733 394.194 99.8408 393.873 101.131C393.662 101.975 393.834 102.921 393.834 103.82C393.834 104.899 393.772 105.978 393.858 107.057C393.912 107.738 393.342 107.933 393.115 108.379C392.888 108.816 392.959 109.426 392.693 109.817C391.043 112.194 390.285 115.165 387.775 116.963C387.134 117.425 387.196 119.293 387.744 119.856C388.619 120.763 389.518 121.639 390.41 122.53C391.786 123.906 392.654 125.556 392.732 127.487C392.779 128.605 394.217 128.988 393.889 130.286C393.67 131.131 393.85 132.077 393.85 132.968C393.85 134.047 393.85 135.126 393.85 136.205C393.858 137.292 392.364 137.745 392.708 138.965C389.823 144.766 389.776 142.686 392.708 148.55C392.685 150.114 394.436 151.146 393.897 152.944C393.6 153.937 393.897 155.087 393.826 156.165C393.764 157.174 394.288 158.362 393.076 159.082C392.661 161.466 392.036 163.843 389.995 165.321C388.604 166.33 388.369 167.932 387.423 169.168C386.383 170.528 384.686 170.614 383.592 171.763C382.661 172.741 381.927 174.125 380.253 174.07C378.354 176.697 374.64 176.728 372.732 179.347C371.669 179.05 371.254 180.215 370.472 180.379C369.472 180.591 368.447 180.278 367.556 181.255C367.071 181.787 365.899 181.615 365.398 182.451C364.038 182.123 363.459 184.046 362.13 183.64C360.848 183.249 360.426 184.789 359.339 184.742C358.252 184.695 357.814 186.259 356.548 185.829C355.5 185.477 355.039 186.845 354.304 186.83C352.982 186.791 352.052 187.479 350.942 187.901C350.019 188.253 349.026 188.081 348.065 188.855C347.244 189.519 345.586 188.698 344.828 190.082C342.795 189.457 341.395 191.959 339.37 191.2C337.932 190.661 337.533 192.795 336.016 192.357C335.094 192.092 333.874 191.959 333.115 193.116C332.983 193.319 332.482 193.382 332.169 193.358C330.746 193.272 329.55 193.64 328.252 194.359C327.158 194.969 325.399 193.89 324.374 195.407C324.304 195.508 324.062 195.501 323.897 195.524C322.373 195.782 320.731 194.969 319.3 196.157C318.065 197.181 316.548 196.47 315.172 196.564C314.07 196.634 313.679 198.018 312.373 197.729C311.349 197.502 310.231 197.69 309.152 197.698C307.823 199.543 305.844 198.8 304.21 198.667C302.631 198.542 301.849 200.059 300.332 199.879C298.941 199.715 297.502 199.926 296.087 199.981C295.063 201.49 293.499 200.731 292.162 200.919C290.653 201.13 289.035 200.403 287.643 201.818C287.189 202.279 285.923 201.865 285.063 202.013C283.053 202.365 280.747 201.028 279.019 203.03C277.948 203.045 276.853 202.944 275.806 203.1C273.616 203.436 271.138 202.021 269.238 204.156C267.979 204.156 266.705 204.031 265.47 204.179C263.093 204.468 260.481 203.241 258.363 205.235H251.889L251.897 205.242ZM254.313 180.434C255.751 180.434 257.244 180.184 258.613 180.497C260.247 180.872 261.162 179.457 262.499 179.379C264.289 179.277 266.103 179.23 267.885 179.379C269.864 179.551 271.56 178.73 273.39 178.331C276.416 177.674 279.746 179.238 282.639 177.182C283.898 177.182 285.188 177.018 286.408 177.221C287.948 177.487 289.011 176.494 290.301 176.165C291.482 175.86 292.834 175.923 294.054 176.15C295.61 176.439 296.65 175.383 297.94 175.071C299.918 174.594 302.209 175.798 303.952 173.945C305.211 173.945 306.525 173.718 307.713 174C309.316 174.375 310.035 172.592 311.599 172.796C312.897 172.967 314.492 173.437 315.516 171.92C316.939 171.873 318.354 171.834 319.777 171.771C319.926 171.771 320.129 171.654 320.207 171.529C320.926 170.348 322.13 170.559 323.1 170.755C324.398 171.013 324.82 169.606 325.899 169.621C327.158 169.637 328.417 169.621 329.675 169.621C330.637 168.097 332.169 168.605 333.546 168.542C333.718 168.534 333.991 168.566 334.046 168.472C334.734 167.385 335.852 167.643 336.861 167.393C337.971 167.119 338.87 166.017 340.207 166.392C341.427 166.736 342.201 165.157 342.967 165.399C344.695 165.954 345.391 164.023 346.868 164.203C348.096 164.351 349.394 164.461 350.191 163.147C351.458 163.28 352.67 163.233 353.522 162.068C354.984 162.319 355.758 160.137 357.392 160.99C358.424 160.387 359.409 159.895 360.715 159.809C361.77 159.739 362.748 158.73 363.788 158.19C364.82 157.651 365.93 157.26 366.923 156.658C370.652 154.406 375.124 153.468 378.275 150.2C380.23 150.638 380.418 147.839 382.239 148.042C383.412 146.971 384.608 145.923 385.758 144.829C386.61 144.008 386.493 143.546 385.773 142.6C384.358 140.747 381.88 140.286 380.472 138.433C379.409 137.034 377.376 136.94 376.305 135.407C375.883 134.79 374.827 134.688 374.085 134.321C372.005 133.281 369.902 132.264 367.853 131.17C366.837 130.63 365.711 130.403 364.984 131.224C364.304 131.991 363.248 131.553 362.709 132.319C362.075 133.234 361.09 132.772 360.285 132.991C359.659 133.156 359.175 133.812 358.557 134C357.759 134.235 356.813 133.758 356.094 134.594C355.422 135.376 354.296 135.431 353.428 136.025C352.568 136.611 350.973 135.939 350.199 137.276C348.667 136.776 347.619 138.042 346.321 138.3C344.984 138.566 343.483 138.105 342.466 139.434C340.887 138.754 339.949 140.544 338.604 140.474C337.134 140.396 335.985 140.966 334.703 141.514C333.514 142.022 331.825 141.068 330.848 142.624C329.355 142.882 327.58 142.037 326.462 143.75C325.383 143.75 324.249 143.961 323.241 143.703C321.779 143.327 321.388 145.329 319.879 144.891C318.948 144.625 317.955 144.836 316.931 145.564C316.079 146.173 314.554 145.853 313.327 145.9C311.943 145.954 311.099 147.362 309.441 147.08C308.018 146.838 306.212 146.345 305.008 147.956C303.585 147.987 302.146 148.175 300.739 148.019C299.238 147.854 298.409 149.254 296.869 149.246C294.875 149.23 292.545 148.144 290.849 150.216C289.41 150.216 287.932 150.427 286.548 150.161C284.961 149.856 283.968 151.037 282.663 151.248C281.263 151.474 279.777 151.435 278.362 151.263C276.697 151.052 275.407 152.037 273.937 152.311C272.373 152.608 270.685 152.569 269.105 152.327C267.237 152.045 265.798 153.148 264.14 153.398C262.381 153.664 260.552 153.46 258.753 153.46H253.359C251.975 155.024 250.122 154.5 248.41 154.524C245.532 154.571 242.655 154.5 239.778 154.555C238.738 154.578 237.456 154.039 236.713 154.868C235.79 155.892 234.766 155.501 233.758 155.61C233.578 155.626 233.398 155.61 233.218 155.61H158.794C158.614 155.61 158.418 155.657 158.262 155.595C158.106 155.54 157.996 155.376 157.863 155.251C157.73 155.126 157.613 154.993 157.48 154.868C157.355 154.75 157.23 154.594 157.081 154.539C156.925 154.484 156.729 154.524 156.55 154.524H156.01C152.234 154.524 148.457 154.531 144.689 154.524C143.313 154.524 141.827 154.813 140.819 153.452H135.963C134.165 153.452 132.367 153.452 130.569 153.452C130.045 153.452 129.271 153.601 129.036 153.32C127.746 151.787 126.057 152.514 124.541 152.405C122.93 152.287 121.304 152.381 119.685 152.381C118.106 150.771 116.073 151.467 114.204 151.287C112.696 151.138 110.944 151.959 109.764 150.309C108.161 150.278 106.519 150.044 104.955 150.286C103.235 150.544 102.226 149.019 100.538 149.051C98.544 149.09 96.2219 150.106 94.5174 148.073C93.2586 148.073 91.9608 147.87 90.7567 148.128C89.1695 148.464 88.3721 146.869 86.8787 146.94C85.0179 147.026 82.9695 147.573 81.3979 145.915C79.8577 145.696 78.1378 146.502 76.793 145.337C75.3856 144.109 73.1339 145.806 72.0159 143.836C70.9447 143.812 69.8345 143.593 68.8181 143.812C67.5202 144.086 67.098 142.694 66.019 142.679C64.643 142.663 63.1262 143.093 62.1489 141.607C60.6008 141.568 59.0996 141.772 57.6767 140.614C57.0199 140.075 55.3077 140.841 54.6353 140.309C53.6658 139.551 52.665 139.731 51.7502 139.371C50.64 138.933 49.6861 138.034 48.3961 138.386C47.1373 138.73 46.6213 137.385 45.6049 137.299C44.7448 137.229 43.8379 137.503 43.1889 136.596C42.454 135.571 40.9685 136.885 40.3039 135.806C39.741 134.899 38.6151 135.431 38.0522 134.68C37.7238 134.25 37.2703 133.859 36.7074 134.062C35.128 134.633 34.3931 132.796 32.8294 132.851C31.6488 132.89 30.39 131.897 29.2485 131.224C28.2399 130.63 27.2548 130.552 26.3244 131.162C24.7841 132.186 22.9859 132.694 21.4612 133.781C20.1165 134.751 18.2322 134.751 17.0281 136.095C15.7537 137.526 13.5411 137.729 12.5168 139.528C12.0477 140.364 10.8749 140.231 10.3511 140.732C7.1533 143.75 6.77019 143.202 9.74126 146.392C10.8828 147.62 12.5794 147.737 13.5411 149.012C14.6278 150.434 16.4417 150.771 17.7709 151.959C19.0531 153.116 21.039 153.507 22.6027 154.524C23.7052 155.243 25.003 155.657 26.1914 156.267C27.677 157.026 29.1469 157.846 30.6715 158.48C32.1883 159.113 33.5487 160.411 35.4017 160.067C35.9724 160.864 36.7465 161.224 37.7003 161.005C38.7715 160.763 39.0842 161.936 39.9521 162.115C41.2578 162.381 42.2663 163.773 43.8222 163.171C44.7995 164.656 46.3163 164.172 47.6924 164.265C48.0051 164.289 48.4352 164.422 48.5915 164.649C49.3734 165.782 50.8824 164.821 51.4609 165.462C52.5086 166.603 53.6814 166.361 54.8855 166.4C55.4249 166.416 55.941 166.423 56.285 166.924C57.0355 168.026 58.5132 166.932 59.1622 167.721C60.1864 168.972 61.453 168.542 62.618 168.519C63.7673 168.495 64.1426 169.824 65.417 169.707C66.9103 169.566 68.6695 169.05 69.8188 170.716C71.0151 170.903 72.4224 170.168 73.3997 171.146C74.5021 172.256 75.7531 171.607 76.9259 171.787C77.4497 171.865 78.2392 171.638 78.466 171.912C79.7404 173.491 81.4605 172.592 82.946 172.882C84.4315 173.171 85.6512 174.242 87.3635 174.015C88.6613 173.843 90.2641 173.382 91.2649 174.922C92.6879 174.953 94.1265 175.141 95.5338 174.985C97.035 174.82 97.8638 176.22 99.404 176.212C101.398 176.197 103.728 175.11 105.424 177.182C106.863 177.182 108.341 177.393 109.724 177.127C111.312 176.822 112.305 178.026 113.61 178.206C115.197 178.433 116.855 178.409 118.45 178.222C120.287 177.995 121.773 178.917 123.415 179.261C125.135 179.621 127.003 179.465 128.786 179.308C130.756 179.144 132.469 179.848 134.298 180.348C135.635 180.716 137.152 180.419 138.59 180.419C140.209 180.419 141.906 180.731 143.422 180.333C145.127 179.887 145.87 181.591 147.316 181.513C148.927 181.427 150.553 181.49 152.171 181.49H157.027C158.825 181.49 160.631 181.591 162.421 181.458C164.048 181.341 165.009 183.116 166.854 182.647C168.371 182.256 170.068 182.569 171.686 182.569H221.303C222.921 182.569 224.618 182.256 226.135 182.647C227.972 183.116 228.934 181.333 230.568 181.458C232.178 181.584 233.805 181.49 235.423 181.49H240.278C242.077 181.49 243.945 181.177 245.65 181.576C247.495 182.006 248.449 180.247 250.075 180.387C251.506 180.512 252.952 180.411 254.391 180.411L254.313 180.434ZM247.792 203.084C249.41 203.084 251.037 202.959 252.639 203.116C254.289 203.28 255.603 202.279 257.057 202.076C261.013 201.536 265.086 202.701 269.035 201.013C270.403 200.426 272.264 200.723 273.835 200.973C275.704 201.271 277.135 200.137 278.792 199.879C281.505 199.457 284.445 200.669 286.963 198.769C288.221 198.769 289.512 198.589 290.731 198.816C292.287 199.097 293.327 198.081 294.617 197.737C296.579 197.205 298.917 198.628 300.63 196.619C302.068 196.619 303.515 196.509 304.938 196.65C306.415 196.791 307.103 194.906 308.831 195.454C309.855 195.774 311.357 196.04 312.209 194.656C313.436 194.594 314.672 194.437 315.899 194.492C317.181 194.547 317.768 193.061 319.238 193.311C320.52 193.53 322.138 193.945 323.116 192.373C324.187 192.35 325.297 192.139 326.313 192.357C327.611 192.639 328.033 191.279 329.112 191.2C330.137 191.13 331.333 191.74 332.169 190.825C333.217 189.676 334.601 190.551 335.649 190.09C336.9 189.535 338.049 188.823 339.488 188.941C340.59 187.205 342.865 188.769 343.764 187.713C344.906 186.368 346.618 187.596 347.556 186.282C348.354 185.172 349.941 186.408 350.887 185.164C351.724 184.062 353.842 185.508 354.546 183.671C356.297 184.343 357.369 182.592 358.901 182.467C359.714 180.677 362.154 182.35 362.967 180.559C365.187 179.801 367.173 178.558 369.276 177.557C371.544 176.486 373.694 175.196 375.961 174.172C376.938 173.726 377.923 173.39 378.486 172.537C379.151 171.537 380.379 171.935 381.168 171.075C383.592 168.425 386.211 165.954 388.744 163.413C389.12 163.038 390.449 160.106 390.59 159.332C390.652 158.988 390.488 158.488 390.676 158.3C392.661 156.322 391.379 153.937 391.559 151.74C389.941 150.356 390.12 147.933 388.518 146.525C388.111 146.166 387.853 145.892 387.353 146.447C386.383 147.51 385.351 148.511 384.311 149.504C383.318 150.442 381.7 150.411 380.926 151.787C380.214 153.062 378.791 153.445 377.595 154.109C375.687 155.165 373.514 155.728 371.935 157.463C371.356 158.097 370.191 158.362 369.3 158.832C368.596 159.199 367.556 158.581 366.852 159.426C366.18 160.231 364.796 159.887 364.257 160.958C363.006 160.552 362.537 162.326 361.52 162.076C360.074 161.717 359.315 163.359 358.197 163.14C356.735 162.85 356.039 164.078 354.867 164.344C353.749 164.594 352.873 165.735 351.528 165.368C350.543 166.572 348.753 166.009 347.838 166.775C346.649 167.768 345.508 167.432 344.335 167.495C343.71 167.526 343.381 167.846 342.998 168.206C341.958 169.176 339.996 167.846 339.3 169.684C337.752 169.723 336.102 169.332 334.898 170.763C333.084 170.348 331.575 171.302 329.941 171.795C328.823 172.131 327.408 171.427 326.571 172.78C325.156 172.827 323.733 172.866 322.318 172.936C322.17 172.936 321.958 173.046 321.888 173.171C321.177 174.351 319.973 174.148 319.003 173.953C317.713 173.695 317.267 175 316.204 175.102C314.523 175.274 312.592 174.344 311.255 176.157C309.996 176.157 308.69 176.376 307.494 176.103C306.032 175.774 305.375 177.166 304.156 177.252C302.115 177.393 299.887 176.556 298.135 178.315C296.697 178.315 295.196 178.581 293.843 178.245C292.185 177.831 291.341 179.308 289.965 179.41C287.573 179.574 285.11 178.855 282.811 180.395C282.068 180.895 280.708 180.473 279.629 180.473C278.73 180.473 277.792 180.637 276.939 180.434C275.657 180.121 275.204 181.544 274.14 181.552C272.882 181.552 271.623 181.552 270.364 181.552C269.285 181.552 268.136 181.795 267.143 181.498C265.642 181.044 265.29 182.889 263.789 182.725C260.95 182.412 258.05 182.631 255.173 182.639C254.461 182.639 253.429 182.365 253.085 182.725C251.42 184.476 249.387 183.546 247.534 183.687C245.743 183.82 243.945 183.718 242.147 183.718C240.708 183.718 239.27 183.781 237.839 183.702C236.4 183.624 235.579 185.587 233.969 184.797C209.356 184.797 184.735 184.797 160.123 184.797C159.419 184.797 158.395 184.992 158.082 184.617C156.917 183.225 155.447 183.773 154.102 183.741C150.873 183.671 147.637 183.718 144.4 183.718C143.68 183.718 142.742 184.015 142.281 183.671C139.521 181.623 136.433 183.03 133.524 182.67C132.109 182.498 130.655 182.639 129.216 182.639C127.832 181.075 125.956 181.779 124.275 181.529C122.258 181.224 119.943 182.561 118.247 180.481H115.01C113.751 180.481 112.492 180.465 111.233 180.481C110.147 180.505 109.701 179.316 108.45 179.308C106.253 179.301 103.814 180.254 101.89 178.315C100.452 178.315 98.9505 178.05 97.5901 178.378C95.7997 178.808 94.7911 177.119 93.1648 177.197C91.2805 177.291 89.2868 177.635 87.684 176.15H82.8365C81.6325 174.711 79.975 175.133 78.4347 175.055C77.9345 175.032 77.2074 175.024 76.9884 174.727C76.1597 173.585 74.9869 173.874 74.0409 174.054C72.7352 174.304 72.3677 172.811 71.2418 172.905C70.3505 172.975 69.4123 172.764 68.5522 172.952C67.2856 173.241 66.9025 171.576 65.761 171.842C63.4155 172.397 61.5703 169.989 59.2013 170.755C58.3412 170.215 57.5985 169.34 56.4179 169.684C55.0496 170.082 54.2131 168.8 53.0794 168.66C51.9926 168.527 51.1326 168.394 50.2256 167.604C49.7174 167.158 48.4664 167.667 47.6064 167.479C46.8167 167.315 46.0114 166.392 45.3625 166.525C43.9004 166.822 43.2124 165.141 42.0318 165.407C40.3977 165.782 39.7097 163.882 38.232 164.093C37.6691 163.241 36.8325 163.061 35.9021 163.21C34.7449 163.398 34.3227 161.638 33.1187 162.139C31.6488 162.757 31.2188 160.419 29.788 161.044C29.2172 160.341 28.5605 159.793 27.5675 159.903C26.9029 158.8 25.6989 159.168 24.7841 158.808C23.5722 158.331 22.204 157.948 21.2814 156.861C20.2494 155.649 18.7404 155.149 17.3487 154.657C16.387 154.312 15.8788 152.991 14.62 153.429C13.6036 152.413 12.7514 150.896 11.5317 150.505C9.85072 149.958 9.01414 148.683 7.83354 147.706C7.27839 147.252 6.8171 146.689 6.30108 146.189C6.0587 145.954 5.87106 146.15 5.52704 146.463C3.95552 147.886 3.56459 149.997 2.61073 151.748C1.71942 153.374 2.08689 155.556 2.53255 157.44C2.66546 158.011 3.3144 158.441 3.41604 159.23C3.6115 160.708 4.82338 163.038 5.51923 163.734C7.92736 166.158 10.3511 168.558 12.7514 170.982C13.846 172.092 15.6443 172.17 16.5434 173.616C16.7388 173.929 17.7553 173.749 17.9116 174.046C18.584 175.313 20.0852 174.969 21.0312 175.837C21.6489 176.408 22.7513 176.783 23.6504 177.213C24.6981 177.713 25.9491 177.932 26.8013 178.652C27.7473 179.449 29.2016 179.269 29.8505 180.458C31.0937 180.012 31.5315 181.849 32.6261 181.505C34.0725 181.052 34.7293 182.522 35.9568 182.678C36.895 182.795 37.5283 183.937 38.7558 183.718C39.9755 183.507 40.6557 185.282 42.0787 184.781C43.1107 184.414 43.3062 185.97 44.3226 185.86C45.1905 185.774 45.9723 185.798 46.7464 186.54C47.7159 187.463 49.6392 186.353 50.4289 187.995C52.4539 187.361 54.0567 188.964 55.9097 189.019C56.9652 189.05 57.2857 190.051 58.1536 190.153C59.4984 190.317 61.0699 189.582 62.055 191.153C63.5171 191.521 65.3232 190.559 66.4334 192.295C67.5124 192.295 68.6304 192.49 69.6468 192.264C70.9447 191.974 71.3278 193.405 72.4459 193.413C74.1503 193.421 76.0033 192.913 77.3872 194.468C79.2557 194.625 81.2963 193.882 82.8678 195.547C84.7521 195.633 86.7536 195.102 88.3486 196.626C90.5691 196.767 92.8364 196.204 94.9631 197.627C95.7058 198.128 97.1054 197.885 98.1374 197.666C99.5604 197.354 100.319 198.644 101.476 198.761C102.719 198.886 104.025 198.964 105.237 198.745C106.793 198.464 107.832 199.535 109.122 199.801C110.498 200.09 111.992 199.973 113.423 199.84C115.057 199.683 116.394 200.645 117.84 200.856C121.437 201.396 125.229 200.16 128.7 202.021C130.498 202.021 132.304 202.146 134.087 201.99C136.057 201.818 137.762 202.639 139.591 203.014C141.491 203.397 143.524 203.1 145.502 203.1C147.3 203.1 149.161 203.405 150.873 203.022C153 202.553 154.454 204.242 156.37 204.187C157.988 204.14 159.607 204.179 161.217 204.179H175.236C176.854 204.179 178.504 204.382 180.076 204.124C181.803 203.843 182.781 205.586 184.501 205.313C186.08 205.063 187.73 205.258 189.341 205.258H204.43C206.229 205.258 208.089 204.953 209.802 205.344C211.631 205.758 212.616 204.046 214.227 204.163C215.658 204.265 217.104 204.187 218.535 204.187H232.554C233.992 204.187 235.509 203.89 236.846 204.257C238.683 204.773 239.645 202.983 241.271 203.077C243.421 203.202 245.579 203.108 247.737 203.108L247.792 203.084ZM254.617 151.31H260.552C261.388 150.122 262.616 150.161 263.882 150.216C265.141 150.27 266.4 150.231 267.659 150.231C268.918 150.231 270.176 150.231 271.435 150.231C273.14 148.151 275.454 149.488 277.463 149.184C279.144 148.933 281.021 149.637 282.405 148.073C284.383 148.073 286.361 148.073 288.339 148.073C288.503 148.073 288.738 148.042 288.808 147.94C289.84 146.439 291.404 147.182 292.741 146.994C294.25 146.783 295.985 147.628 297.197 146.04C298.62 146.001 300.059 145.806 301.458 145.962C302.967 146.126 303.765 144.633 305.336 144.75C306.97 144.876 308.956 145.642 310.278 143.765C311.357 143.765 312.49 143.546 313.499 143.82C314.969 144.211 315.336 142.288 316.861 142.616C318.331 142.929 320.043 143.054 321.247 141.615C323.069 142.069 324.562 141.005 326.204 140.583C327.377 140.278 328.651 140.403 329.879 140.333C330.926 138.824 332.49 139.661 333.827 139.449C333.983 139.426 334.171 139.309 334.249 139.184C335.148 137.55 337.603 139.293 338.33 137.307C339.23 137.307 340.129 137.252 341.028 137.323C341.708 137.378 341.888 136.643 342.326 136.557C343.819 136.267 345.187 135.525 346.618 135.235C347.971 134.969 349.378 135.134 350.465 134.07C352.169 134.493 353.35 133.156 354.71 132.6C355.523 132.272 356.297 132.108 357.103 131.858C358.385 131.467 359.456 130.474 360.981 130.74C361.286 130.794 361.7 129.989 362.122 129.668C362.544 129.356 362.646 129.09 362.232 128.902C361.02 128.363 359.44 128.183 358.635 127.292C357.431 125.97 355.281 127.292 354.491 125.454C352.982 125.876 351.849 124.446 350.637 124.477C349.081 124.516 348.26 123.163 346.767 123.21C345.281 123.249 344.069 121.795 342.435 122.03C341.591 120.662 340.223 121.17 339.034 121.146C337.791 121.115 337.158 119.715 335.696 119.981C334.132 120.263 332.474 120.02 330.856 120.06C330.356 120.067 329.621 120.075 329.402 120.38C328.581 121.514 327.408 121.248 326.454 121.068C325.148 120.818 324.758 122.178 323.655 122.249C322.279 122.335 320.77 121.623 319.527 122.655C318.096 123.844 316.454 123.031 314.93 123.289C314.765 123.32 314.523 123.312 314.453 123.414C313.428 124.93 311.865 124.383 310.528 124.321C308.894 124.242 307.901 125.845 306.102 125.54C304.687 125.306 302.858 124.774 301.685 126.455C300.434 126.479 299.152 126.705 297.948 126.471C296.517 126.189 295.774 127.479 294.609 127.581C293.358 127.69 292.06 127.792 290.849 127.557C289.293 127.26 288.253 128.363 286.963 128.621C285.579 128.894 284.085 128.801 282.663 128.652C281.021 128.48 279.699 129.473 278.237 129.676C274.993 130.138 271.56 129.098 268.448 130.833C266.65 130.833 264.844 130.966 263.061 130.794C261.083 130.607 259.379 131.623 257.565 131.811C254.367 132.147 251.107 131.905 247.87 131.905C247.151 131.905 246.181 131.6 245.751 131.951C243.359 133.922 240.622 132.702 238.066 132.937C235.751 133.148 233.398 132.984 231.06 132.984C229.801 132.984 228.543 132.929 227.284 132.999C226.072 133.07 224.633 132.468 223.687 133.351C222.561 134.391 221.357 133.984 220.185 134.039C218.574 134.117 216.948 134.062 215.329 134.062H177.581C176.143 134.062 174.618 133.765 173.289 134.133C171.452 134.649 170.49 132.812 168.856 132.952C167.425 133.077 165.979 132.976 164.548 132.976H155.377C153.938 132.976 152.461 132.765 151.077 133.03C149.49 133.335 148.708 131.686 147.191 131.858C145.596 132.037 143.962 131.897 142.343 131.897C140.905 131.897 139.443 131.733 138.035 131.936C136.347 132.178 135.096 131.138 133.618 130.865C132.398 130.638 131.108 130.818 129.849 130.818C128.591 130.818 127.269 130.575 126.089 130.88C124.587 131.271 124.048 129.754 122.75 129.676C119.654 129.489 116.378 130.701 113.485 128.66C111.867 128.66 110.178 128.371 108.653 128.738C106.832 129.176 105.807 127.651 104.236 127.526C102.039 127.354 99.576 128.582 97.6683 126.502C96.4095 126.502 95.1038 126.283 93.9076 126.557C92.4455 126.885 91.8044 125.47 90.5691 125.4C88.5284 125.29 86.3001 126.095 84.541 124.344C82.6489 124.305 80.8272 124.446 78.9976 123.367C77.9188 122.733 76.2535 123.085 74.854 122.999C73.5796 121.436 71.8282 122.522 70.3349 122.186C70.0143 122.116 69.5686 122.061 69.4201 121.842C68.6382 120.677 67.4264 121.006 66.4803 121.17C65.1825 121.404 64.815 119.856 63.6813 120.036C60.9605 120.458 58.0754 119.082 55.4484 121.045C54.7447 121.568 53.3843 121.217 52.3288 121.264C51.6095 122.749 49.8581 121.647 49.0841 122.46C48.1615 123.421 46.9496 122.866 46.2069 123.359C45.1045 124.078 44.0881 124.313 42.8371 124.446C42.1413 124.524 41.6174 125.759 40.5775 125.423C39.3109 125.009 38.9278 126.627 37.7863 126.525C35.4095 126.322 33.9552 128.543 31.7661 128.918C31.3517 128.988 31.4377 129.379 31.8912 129.661C32.4697 130.02 32.6808 130.873 33.5643 130.833C34.4322 130.794 35.3079 130.654 35.9724 131.545C36.6917 132.514 38.0131 131.396 38.9044 132.288C39.4673 132.851 40.5306 132.921 41.0545 133.5C42.0943 134.641 43.9317 133.382 44.8465 134.946C45.0419 135.29 46.1756 135.071 46.8715 135.141C47.3797 135.196 48.1928 135.126 48.3413 135.399C49.1545 136.869 50.8511 135.626 51.6642 136.541C52.7041 137.706 53.9707 137.12 55.1435 137.307C55.464 137.362 55.8862 137.448 56.0504 137.675C57.0981 139.082 59.3186 137.69 60.1786 139.457C62.0003 139.043 63.5015 139.997 65.1355 140.497C66.582 140.935 68.1691 140.137 69.6547 141.404C70.7414 142.335 72.8759 140.849 73.9705 142.624C75.0416 142.647 76.144 142.866 77.1683 142.647C78.4582 142.374 78.896 143.703 79.9671 143.797C81.6481 143.945 83.5793 143.046 84.9163 144.852C86.175 144.852 87.4807 145.071 88.677 144.797C90.139 144.469 90.788 145.868 92.0155 145.947C94.0561 146.08 96.2844 145.251 98.0436 147.01C99.4822 147.01 100.991 147.284 102.336 146.94C104.001 146.51 104.822 148.105 106.222 148.089C107.481 148.073 108.763 148.253 109.99 148.042C111.382 147.807 112.203 148.91 113.337 149.121C114.376 149.316 115.487 149.16 116.566 149.16C117.824 149.16 119.122 149.348 120.334 149.105C121.632 148.847 122.046 150.262 123.133 150.239C124.392 150.216 125.651 150.239 126.91 150.239C128.348 150.239 129.842 150.481 131.21 150.176C132.703 149.84 133.063 151.576 134.564 151.412C137.402 151.099 140.303 151.318 143.18 151.326C143.891 151.326 144.916 151.076 145.26 151.435C146.761 153.038 148.606 152.319 150.287 152.366C154.056 152.475 157.832 152.397 161.608 152.405C162.312 152.405 163.344 152.209 163.649 152.577C164.65 153.796 165.893 153.445 167.089 153.468C169.067 153.499 171.045 153.476 173.023 153.476H219.403C221.381 153.476 223.422 153.171 225.321 153.554C227.448 153.992 228.918 152.381 230.826 152.389C232.444 152.397 234.063 152.389 235.681 152.389H240.536C242.155 152.389 243.82 152.139 245.376 152.452C247.143 152.811 248.253 151.341 249.793 151.318C251.412 151.287 253.03 151.318 254.649 151.318L254.617 151.31ZM261.818 128.66C262.897 128.66 263.984 128.574 265.047 128.683C266.353 128.816 267.315 128.003 268.409 127.706C270.083 127.253 272.022 127.323 273.757 127.651C275.845 128.042 277.393 126.682 279.254 126.51C281.818 126.275 284.547 127.237 286.892 125.431C288.331 125.431 289.863 125.11 291.177 125.509C292.905 126.041 293.601 124.313 295.063 124.289C296.908 124.258 299.027 125.196 300.543 123.273C301.802 123.273 303.108 123.054 304.304 123.328C305.766 123.656 306.439 122.264 307.643 122.194C309.347 122.092 311.2 122.679 312.584 121.115C314.453 120.982 316.493 121.678 318.065 120.036C319.472 119.974 320.887 119.911 322.295 119.848C323.335 118.324 324.906 119.176 326.235 118.934C326.478 118.895 326.665 118.543 326.845 118.308C326.861 118.293 326.603 117.949 326.485 117.956C325.485 118.042 324.969 117.229 324.226 116.87C323.491 116.518 322.467 116.791 321.568 116.791C321.028 116.791 320.16 117.002 320.004 116.76C318.628 114.633 315.665 116.823 314.374 114.633C313.296 114.633 312.217 114.649 311.138 114.633C310.098 114.618 309.175 114.665 308.198 113.844C307.549 113.296 306.165 113.539 305.117 113.586C304.148 113.625 303.538 113.164 302.772 112.687C302.115 112.28 301.052 112.585 300.176 112.476C298.495 112.264 296.579 113.195 295.203 111.475C293.952 111.451 292.67 111.225 291.466 111.459C290.035 111.741 289.293 110.466 288.128 110.349C287.057 110.247 285.978 110.325 284.899 110.325C283.999 110.325 283.053 110.153 282.217 110.365C280.919 110.701 280.544 109.184 279.418 109.231C277.807 109.301 276.173 109.114 274.57 109.286C272.749 109.481 271.247 108.582 269.606 108.277C267.346 107.863 264.954 108.183 262.616 108.168C261.912 108.168 260.904 108.379 260.56 108.011C259.215 106.541 257.565 107.19 256.048 107.128C253.359 107.018 250.661 107.096 247.964 107.096C245.274 104.97 242.155 106.26 239.246 106.072C235.845 105.853 232.421 106.033 229.012 106.01C228.324 106.01 227.323 106.127 227.01 105.744C225.986 104.493 224.696 104.97 223.531 104.97C205.744 104.938 187.957 104.946 170.17 104.946C169.45 104.946 168.473 104.641 168.059 104.993C165.846 106.862 163.289 105.885 160.912 105.971C156.604 106.135 152.281 105.892 147.981 106.096C146.722 106.158 145.658 107.401 144.103 107.143C142.703 106.909 141.233 107.096 139.802 107.096C138.372 107.096 136.925 107.096 135.487 107.096C135.127 107.096 134.595 106.948 134.439 107.128C132.687 109.153 130.397 107.831 128.379 108.152C126.362 108.472 124.118 107.487 122.359 109.254C120.561 109.254 118.716 109.512 116.98 109.184C114.893 108.793 113.344 110.153 111.484 110.325C108.919 110.568 106.269 109.723 103.798 111.326C103.04 111.819 101.664 111.561 100.624 111.365C99.232 111.099 98.4189 112.264 97.2852 112.436C96.0577 112.632 94.7442 112.655 93.5245 112.436C91.9686 112.155 90.9287 113.179 89.6387 113.515C88.0124 113.938 86.0421 112.851 84.7052 114.641C83.4464 114.641 82.1485 114.845 80.9445 114.587C79.3573 114.25 78.5598 116.056 77.0666 115.72C75.7531 115.423 74.8227 116.33 73.7125 116.713C72.5866 117.096 71.1636 116.572 69.9909 116.87C69.0839 117.104 68.3099 117.933 67.2935 118.144C67.2075 118.16 67.0824 118.418 67.1215 118.504C67.184 118.66 67.3482 118.871 67.4889 118.879C68.3802 118.934 69.295 118.809 70.1472 118.996C70.9369 119.176 71.6249 119.794 72.4146 120.013C73.7594 120.38 75.3387 119.426 76.535 120.443C77.9814 121.67 79.6075 120.834 81.1165 121.115C81.2885 121.146 81.5465 121.092 81.6169 121.185C83.3447 123.5 86.6051 120.912 88.3095 123.273C90.53 123.414 92.7973 122.851 94.924 124.274C95.6667 124.774 97.0584 124.508 98.0983 124.313C99.49 124.047 100.311 125.196 101.437 125.384C102.664 125.587 103.978 125.603 105.198 125.384C106.746 125.102 107.793 126.095 109.083 126.455C110.084 126.729 111.226 126.51 112.305 126.51C113.204 126.51 114.15 126.682 114.986 126.471C116.284 126.135 116.66 127.667 117.785 127.604C119.036 127.534 120.303 127.589 121.554 127.589C122.993 127.589 124.455 127.769 125.854 127.542C127.269 127.307 127.707 128.98 129.2 128.754C131.311 128.433 133.501 128.66 135.659 128.676C136.362 128.676 137.379 128.464 137.715 128.832C139.06 130.302 140.709 129.661 142.218 129.715C145.268 129.825 148.325 129.747 151.382 129.747C152.101 129.747 153.031 129.45 153.5 129.794C156.26 131.819 159.349 130.661 162.257 130.763C167.996 130.966 173.75 130.826 179.505 130.826C180.224 130.826 181.194 130.521 181.616 130.873C184.008 132.843 186.745 131.568 189.301 131.865C190.896 132.053 192.531 131.897 194.149 131.897H203.852C205.29 131.897 206.737 131.998 208.16 131.865C209.692 131.725 211.264 132.366 212.773 131.271C214.133 130.286 215.861 130.904 217.425 130.826C219.035 130.747 220.662 130.81 222.272 130.81H233.593C234.852 130.81 236.15 130.607 237.354 130.865C238.793 131.17 239.512 129.825 240.693 129.754C242.123 129.676 243.57 129.739 245.001 129.739H249.309C250.927 129.739 252.553 129.637 254.156 129.77C255.626 129.887 256.416 128.206 258.034 128.605C259.223 128.894 260.536 128.66 261.795 128.66H261.818ZM251.639 102.773C249.661 102.773 247.682 102.757 245.704 102.804C245.493 102.804 245.282 103.195 245.11 103.429C245.094 103.453 245.345 103.774 245.47 103.781C246.721 103.828 248.011 104.039 249.207 103.805C250.646 103.515 251.373 104.845 252.546 104.915C254.156 105.009 255.782 104.938 257.401 104.938C258.839 104.938 260.364 105.236 261.693 104.868C263.531 104.352 264.492 106.143 266.118 106.049C268.448 105.924 270.794 106.017 273.124 106.017C275.649 107.91 278.573 106.791 281.302 107.096C281.482 107.112 281.732 107.018 281.834 107.112C283.632 108.723 285.821 108.011 287.87 108.191C289.214 108.308 290.778 107.612 291.787 109.145C293.03 109.184 294.375 109.536 295.493 109.184C297.205 108.644 297.916 110.38 299.386 110.396C301.232 110.419 303.35 109.481 304.875 111.412C306.134 111.412 307.439 111.631 308.636 111.357C310.098 111.029 310.77 112.429 311.974 112.491C313.679 112.585 315.532 112.006 316.923 113.57C318.002 113.57 319.105 113.703 320.152 113.539C321.38 113.343 321.74 114.821 322.951 114.696C324.163 114.571 325.406 114.798 326.634 114.868C327.689 116.377 329.253 115.54 330.59 115.736H337.783C339.19 116.299 339.894 114.665 341.114 114.665C342.506 114.665 343.952 114.86 344.984 113.578C346.712 114.266 347.752 112.241 349.394 112.483C350.637 112.663 351.286 111.209 352.724 111.311C353.952 111.397 355.039 109.794 356.587 110.341C357.157 109.309 358.526 109.551 359.167 108.816C360.05 107.792 361.192 108.48 362.107 108.058C362.341 107.949 362.513 107.495 362.529 107.19C362.544 106.885 362.435 106.447 362.216 106.268C361.379 105.595 360.066 106.58 359.315 105.486C358.565 104.399 357.087 105.517 356.438 104.688C355.617 103.633 353.968 104.133 353.412 102.82C351.661 103.594 350.645 101.569 349.011 101.694C347.47 101.811 346.368 100.286 344.593 100.544C343.178 100.756 341.904 99.1684 340.277 99.3873C339.175 97.6438 337.064 99.2388 335.954 98.1833C334.992 97.2685 333.991 97.2607 333.022 97.4561C331.724 97.7141 331.294 96.385 330.223 96.299C329.198 96.213 327.994 96.8307 327.166 95.9315C326.11 94.79 324.836 95.4233 323.663 95.2435C323.491 95.22 323.217 95.267 323.163 95.1731C322.17 93.6251 320.606 94.2271 319.253 94.1802C317.658 94.1255 316.055 94.2427 314.453 94.2818C313.444 95.8064 311.873 95.2435 310.536 95.1966C308.909 95.134 307.901 96.6977 306.11 96.4163C304.687 96.1895 302.858 95.6422 301.693 97.331C300.262 97.3545 298.823 97.5031 297.408 97.3623C295.915 97.2059 295.078 98.5976 293.538 98.582C291.544 98.5585 289.222 97.5187 287.518 99.5593C285.18 99.5593 282.842 99.5593 280.505 99.5593C280.333 99.5593 280.098 99.5359 280.004 99.6297C278.057 101.655 275.595 100.271 273.398 100.615C272.358 100.779 271.279 100.724 270.215 100.763C269.199 102.28 267.643 101.631 266.29 101.694C264.5 101.772 262.694 101.694 260.896 101.725C260.38 101.725 259.613 101.655 259.402 101.944C258.449 103.257 257.127 102.718 255.947 102.781C254.516 102.859 253.069 102.796 251.631 102.796L251.639 102.773ZM135.846 104.931C135.846 104.931 135.846 105.001 135.846 105.032C137.973 104.923 140.092 104.806 142.218 104.696C144.071 103.07 146.307 104.204 148.332 103.828C148.536 103.789 148.708 103.414 148.833 103.164C148.856 103.109 148.598 102.812 148.473 102.812C146.135 102.781 143.805 102.781 141.468 102.781C140.029 102.781 138.551 102.562 137.167 102.835C135.713 103.125 135.017 101.756 133.829 101.709C132.39 101.655 130.952 101.694 129.513 101.694C128.075 101.694 126.636 101.694 125.197 101.694C125.025 101.694 124.752 101.725 124.689 101.639C123.86 100.31 122.523 100.748 121.327 100.599C118.778 100.271 115.987 101.592 113.681 99.5437C112.062 99.5437 110.397 99.2935 108.841 99.6062C106.918 99.9972 105.659 98.3005 103.884 98.4491C102.813 98.5351 101.703 98.3084 100.655 98.5038C99.2711 98.7618 98.4423 97.6281 97.3086 97.4327C95.5807 97.1278 93.5479 98.0191 92.1093 97.0027C90.3736 95.7752 88.6613 96.6117 86.9804 96.3224C86.6285 96.2599 86.0499 96.4632 85.9327 96.2912C84.2282 93.8674 80.921 96.557 79.2478 94.1567C76.3551 94.618 73.2824 93.1872 70.4756 95.1653C69.7407 95.6813 68.091 94.9698 67.442 95.5093C66.4647 96.3303 65.4717 96.5257 64.5179 96.2521C63.0245 95.8299 62.5633 97.6516 61.1637 97.4405C60.2021 97.2998 59.1387 97.0808 58.1849 98.0425C57.231 99.0042 55.808 98.2771 54.6118 98.4804C54.4711 98.5038 54.3303 98.7071 54.2287 98.8478C53.2201 100.286 50.9527 98.8009 50.1083 100.623C48.0755 99.9502 46.4883 101.655 44.6197 101.647C43.4391 101.647 43.0169 103.218 41.8363 102.757C40.3743 102.186 39.8739 104.305 38.4978 103.852C37.7941 104.798 36.8481 104.954 35.7066 104.978C34.5495 105.001 33.7832 106.44 32.3681 106.041C31.7895 105.877 31.4611 106.354 31.3986 106.971C31.336 107.589 31.641 108.183 32.1413 108.121C33.4783 107.964 34.4009 108.871 35.5033 109.137C36.4415 109.364 36.8637 110.466 37.716 110.286C39.5846 109.888 40.773 112.194 42.6729 111.404C43.7128 113.093 46.1365 111.874 47.1686 113.562C48.7323 112.929 49.7174 114.391 51.0387 114.633C52.0395 114.821 53.2592 114.149 54.0332 115.181C54.9167 116.361 56.3162 115.306 57.4187 116.236C58.8182 117.417 60.9526 117.26 62.36 116.4C63.5953 115.65 64.7446 116.025 65.8627 115.673C67.1449 115.267 68.2082 114.235 69.7485 114.602C70.4209 114.766 71.5389 114.907 71.8204 114.547C72.9463 113.124 74.4552 113.406 75.7531 113.617C77.3481 113.883 78.1065 112.264 79.6388 112.405C80.9523 112.53 82.5394 113.062 83.5637 111.545C84.9788 111.49 86.4174 111.264 87.8091 111.436C89.3337 111.623 90.1078 110.083 91.6871 110.216C93.3212 110.357 95.2915 111.06 96.6362 109.254C97.8872 109.246 99.1929 109.028 100.389 109.286C101.843 109.598 102.539 108.214 103.728 108.168C105.166 108.105 106.613 108.05 108.036 108.183C109.67 108.332 110.999 107.565 112.469 107.159C113.798 106.784 115.338 106.932 116.753 107.12C118.426 107.339 119.701 106.322 121.179 106.064C122.75 105.791 124.431 105.806 126.01 106.057C127.879 106.346 129.318 105.236 130.975 104.978C132.555 104.735 134.204 104.923 135.823 104.923L135.846 104.931ZM143.516 33.7427H150.529C151.374 32.5621 152.593 32.5934 153.86 32.6481C155.119 32.7107 156.378 32.6637 157.636 32.6637H171.116C171.835 32.6637 172.89 32.9687 173.219 32.609C175.033 30.6309 177.284 31.8819 179.302 31.6239C180.889 31.4206 182.531 31.5848 184.149 31.5848H212.726C214.344 31.5848 216.041 31.8975 217.558 31.5066C219.395 31.0375 220.357 32.7967 221.983 32.695C223.953 32.5699 225.931 32.6637 227.909 32.6637H233.304C235.282 32.6637 237.299 32.9139 239.223 32.5934C241.302 32.2494 242.858 33.6254 244.719 33.7114C247.229 33.8287 249.747 33.7427 252.264 33.7427H257.119C259.809 35.8772 262.936 34.3916 265.837 34.806C266.541 34.9077 267.565 34.5167 267.94 34.8764C269.449 36.3072 271.247 35.6817 272.928 35.9319C274.946 36.229 277.252 34.9077 278.957 36.9718C280.035 36.9718 281.114 36.9718 282.186 36.9718C283.444 36.9718 284.703 36.9952 285.962 36.9718C287.057 36.9483 287.502 38.1367 288.753 38.1445C290.95 38.168 293.397 37.1594 295.313 39.1375C296.572 39.1375 297.877 39.3564 299.074 39.0828C300.544 38.7387 301.146 40.2321 302.412 40.2477C304.461 40.2712 306.572 39.8099 308.487 41.2329C309.066 41.6629 310.27 41.4518 311.122 41.2641C312.389 40.9827 312.905 42.2258 313.921 42.3822C315.305 42.5933 316.955 41.7567 318.057 42.7496C319.543 44.0866 321.145 43.1249 322.639 43.4533C322.811 43.4924 323.116 43.3908 323.163 43.469C324.476 45.6425 327.463 43.4299 328.753 45.619C331.13 44.8137 332.998 47.1828 335.312 46.6902C336.501 46.44 336.876 47.9802 338.112 47.8239C339.284 47.6675 340.653 47.4408 341.458 48.7934C343.178 48.1601 344.288 50.2554 345.828 49.888C347.916 49.3876 349.269 51.6862 351.294 51.0842C352.349 52.3117 353.889 52.8825 355.297 53.0701C356.853 53.2734 357.955 54.9778 359.691 54.2507C360.394 55.056 361.598 55.0795 362.294 55.705C363.225 56.5415 364.476 56.5494 365.437 57.3938C366.047 57.9332 367.548 57.1279 368.244 58.3163C370.629 58.8558 372.318 60.6619 374.397 61.7018C375.242 62.124 375.891 63.328 377.134 62.8902C377.916 63.6017 378.612 64.7432 379.503 64.923C380.746 65.1732 381.246 66.0567 382.005 66.7213C382.364 67.0418 382.474 67.0731 382.794 66.9245C383.991 66.3929 384.303 64.8526 383.592 63.8831C382.888 62.9215 381.692 63.0856 380.957 62.382C380.081 61.5454 379.346 60.5133 377.963 60.4821C377.329 59.278 375.554 59.8879 374.968 58.5822C374.397 57.3078 372.881 57.5345 371.935 56.737C371.231 56.1428 370.097 55.9942 369.315 55.314C367.728 56.0177 366.665 54.6494 365.492 54.1334C364.147 53.547 362.826 52.3117 361.481 52.2179C359.98 52.1162 359.096 50.7402 357.642 50.9513C356.985 49.8567 355.734 50.2398 354.882 49.8254C353.623 49.2156 352.419 48.7386 351.043 48.6683C350.332 47.1593 348.557 48.3399 347.791 47.4799C346.72 46.2914 345.484 46.87 344.319 46.6745C343.991 46.6198 343.53 46.5729 343.389 46.3618C342.412 44.8216 340.066 46.4087 339.276 44.5245C338.557 44.5245 337.83 44.4619 337.119 44.5401C336.313 44.6261 335.821 44.2508 335.281 43.7191C334.492 42.9373 333.17 43.9772 332.373 42.9451C331.567 41.9052 330.395 42.5073 329.386 42.3665C328.698 42.2727 327.682 42.4995 327.369 42.1242C326.509 41.0999 325.453 41.1312 324.453 41.3267C323.186 41.569 322.662 40.3572 321.654 40.2008C320.27 39.9897 318.62 40.8263 317.518 39.8333C316.032 38.4964 314.429 39.458 312.936 39.1218C312.764 39.0828 312.475 39.1922 312.412 39.1062C310.739 36.659 307.416 39.3564 305.743 36.9561C304.484 36.9561 303.171 36.7372 301.982 37.0108C300.512 37.3549 299.926 35.7677 298.644 35.8615C297.572 35.9397 296.423 35.6426 295.422 35.9319C293.929 36.3619 293.39 34.7826 292.084 34.7357C289.34 34.634 286.501 35.4941 283.851 33.7896C283.085 33.297 281.74 33.7114 280.661 33.7114C279.762 33.7114 278.824 33.5394 277.971 33.7505C276.681 34.0789 276.259 32.6012 275.172 32.6246C274.093 32.6481 273.014 32.6246 271.935 32.6246C270.677 32.6246 269.379 32.437 268.175 32.6794C266.869 32.9374 266.502 31.5066 265.376 31.5301C262.678 31.5926 259.981 31.5535 257.291 31.5457C256.58 31.5457 255.556 31.8037 255.212 31.4362C253.711 29.8256 251.865 30.5684 250.184 30.5058C246.955 30.3886 243.718 30.4746 240.482 30.4746C237.769 28.5199 234.68 29.5207 231.764 29.4347C226.557 29.2861 221.342 29.4034 216.127 29.3878C215.431 29.3878 214.407 29.5363 214.11 29.161C213.101 27.9023 211.819 28.3401 210.646 28.3401C201.483 28.3088 192.312 28.3245 183.148 28.3245C182.429 28.3245 181.459 28.0195 181.029 28.3714C178.637 30.3416 175.893 29.0516 173.344 29.3721C171.929 29.5441 170.474 29.4034 169.036 29.4034H160.951C159.693 29.4034 158.403 29.5754 157.183 29.3565C155.635 29.0829 154.587 30.1853 153.297 30.4042C151.546 30.7013 149.716 30.4746 147.918 30.4746C145.94 30.4746 143.899 30.7873 142.007 30.3886C140.029 29.9742 138.911 31.8819 137.035 31.6082C135.275 31.3502 133.446 31.5457 131.648 31.5535C130.397 31.5535 129.146 31.5848 127.895 31.6082C127.089 32.9608 125.737 32.4996 124.548 32.6481C122 32.9765 119.216 31.663 116.902 33.7114C115.283 33.7114 113.61 33.9694 112.062 33.6489C110.131 33.2501 108.872 34.806 107.105 34.8373C104.533 34.8842 101.804 34.0633 99.4666 35.8693C97.7152 36.0179 95.7058 35.236 94.2594 36.2603C92.5237 37.4878 90.8114 36.6512 89.1305 36.9405C88.7786 37.003 88.2001 36.8076 88.0906 36.9718C87.2306 38.2384 85.964 38.0194 84.7286 38.0429C83.7122 38.0585 82.7818 37.996 81.7576 38.7387C80.9132 39.3486 79.3886 39.0984 78.169 39.0749C77.3481 39.0593 76.9337 39.7708 76.363 39.9193C75.1902 40.2164 73.9158 40.2086 72.6882 40.1617C71.406 40.107 70.7962 41.8036 69.3576 41.2798C68.0206 40.795 67.1605 42.1163 66.0269 42.2962C64.7993 42.4916 63.5171 42.3353 62.2583 42.3587C62.1176 42.3587 61.93 42.5229 61.8596 42.6636C61.1168 44.1179 59.4124 42.8122 58.5602 43.813C57.5516 45.0014 56.2381 44.3134 55.0653 44.501C54.8933 44.5245 54.6274 44.4854 54.5649 44.5714C53.8769 45.6581 52.7588 45.3923 51.7502 45.6425C50.64 45.924 49.733 47.0186 48.4039 46.6433C47.1842 46.2993 46.5118 47.777 45.6283 47.6519C43.7519 47.386 42.5713 49.5909 40.6714 48.809C39.8348 50.0052 38.6073 49.9896 37.3485 49.8958C36.5666 51.1858 34.8231 50.9435 33.924 52.0459C32.3446 51.3735 31.3048 52.7261 30.0851 53.1874C28.2243 53.8911 26.7231 55.5486 24.487 55.2827C23.8928 56.2757 22.5637 56.0802 21.8913 56.7839C20.5465 58.2069 18.8733 58.9496 17.1063 59.5908C16.3166 59.8722 15.8944 60.6775 14.8702 60.7714C14.1665 60.8417 13.5489 61.8581 12.9156 62.4758C12.2901 63.0935 11.2971 62.7494 10.6404 63.5782C9.77254 64.6806 9.56925 65.181 10.5622 66.2131C10.9531 66.6196 11.3597 67.5422 12.0712 66.5414C13.2283 64.9308 15.3706 64.7119 16.6607 63.1716C17.2001 62.5305 18.3886 62.1943 19.2877 61.8347C19.9523 61.5689 20.5777 61.3656 21.0234 60.8183C22.0476 59.5673 23.5722 59.1451 24.9483 58.5744C26.0038 58.1365 26.8169 57.0654 28.2634 57.3859C29.2563 57.6049 29.7645 55.9161 30.992 56.2523C31.555 54.9466 33.3298 55.5877 34.0334 54.3758C34.182 54.1178 35.0186 54.196 35.5346 54.2116C36.7777 54.2429 37.4267 52.8825 38.8731 53.0154C39.8817 53.1092 41.2968 52.429 41.9692 51.6237C43.0482 50.3258 44.9481 51.8035 45.7534 50.1772C45.855 49.9818 46.3711 49.9036 46.6916 49.9114C48.099 49.9427 49.5063 50.0209 50.5618 48.8168C52.149 49.5283 53.0559 47.5971 54.4242 47.7691C55.9253 47.9568 57.0512 47.2766 58.3178 46.7058C59.2326 46.2914 60.5695 47.1437 61.367 46.3149C62.4381 45.1968 63.6891 45.7598 64.8541 45.5721C65.1746 45.5174 65.5812 45.4236 65.761 45.1968C67.1371 43.5159 69.7719 45.619 71.0073 43.4455C71.0933 43.2891 71.6953 43.4611 72.0471 43.422C73.3919 43.25 74.9556 44.0632 75.9955 42.5464C77.4028 42.4838 78.8178 42.4213 80.2252 42.3431C80.3815 42.3353 80.6083 42.2727 80.6786 42.1554C81.5465 40.7794 83.0398 41.0296 84.064 41.3579C85.7919 41.9052 86.4956 40.1617 87.9577 40.1383C89.8028 40.107 91.9217 41.0452 93.4463 39.1218C94.7051 39.1218 96.0029 38.9186 97.207 39.1688C98.7863 39.4971 99.6151 38.0116 101.085 37.9725C103.282 37.91 105.721 38.9029 107.653 36.9639C109.451 36.9639 111.28 36.7528 113.032 37.0187C114.916 37.308 116.159 35.7912 117.989 35.799C120.717 35.8068 123.649 36.7137 126.167 34.806H135.33C136.347 33.4612 137.816 33.7427 139.2 33.7271C140.639 33.7114 142.078 33.7271 143.516 33.7271V33.7427ZM139.56 53.1561C138.121 53.1561 136.612 53.4376 135.268 53.0857C133.602 52.6557 132.781 54.2663 131.382 54.2429C130.123 54.2194 128.864 54.2429 127.605 54.2429C126.526 54.2429 125.416 54.4071 124.376 54.2038C122.985 53.938 122.172 55.1029 121.03 55.2749C119.803 55.4704 118.52 55.3218 117.262 55.3218C116.183 55.3218 115.025 55.5642 114.04 55.2671C112.523 54.8058 112.133 56.5415 110.694 56.5181C108.52 56.479 106.034 55.3922 104.134 57.4798C102.696 57.4798 101.21 57.7143 99.834 57.4172C98.2156 57.0654 97.2695 58.3476 95.9482 58.5353C93.9232 58.8245 91.6871 57.8785 89.9279 59.6377C88.6692 59.6377 87.3713 59.8331 86.1594 59.5908C84.5879 59.278 83.8842 61.0763 82.2658 60.7948C80.9836 60.5681 79.3651 60.185 78.3878 61.7487C76.9572 61.7643 75.5264 61.7721 74.0956 61.819C73.9548 61.819 73.7828 61.9989 73.6968 62.1396C72.9541 63.3358 71.7266 62.9996 70.7805 62.8276C69.4826 62.5931 69.1152 64.0004 67.9815 63.9926C66.2771 63.9848 64.4241 63.4766 63.0324 65.0403C61.2106 64.5868 59.7173 65.8143 58.0754 66.0176C56.9261 66.1583 56.2771 67.0027 55.292 67.1747C54.2678 67.3546 53.2123 67.378 52.1724 67.464C51.4609 68.973 49.6861 67.6438 48.9043 68.6368C48.0364 69.7314 46.676 68.887 46.0192 69.4499C45.1045 70.2318 44.2679 70.5132 43.1577 70.4429C42.2273 70.3803 41.9692 71.8111 40.9059 71.514C39.694 71.17 39.006 72.5382 38.1225 72.507C36.7621 72.4601 35.9021 73.3983 34.7762 73.6094C33.7363 73.8127 32.6417 73.625 31.985 74.7196C30.5542 74.141 30.1554 76.2677 28.6621 75.9549C28.0992 75.8377 28.451 76.6664 28.8107 77.0026C30.1398 78.238 30.7575 78.3161 32.4932 77.4405C33.533 76.9166 34.5729 75.9159 35.5971 75.9393C36.9888 75.9706 37.8411 74.6805 38.9122 74.8369C40.3664 75.0402 41.0857 73.6016 42.2507 73.7188C44.0802 73.8987 45.2999 71.9675 47.1607 72.4913C47.8331 71.3655 49.0294 71.772 49.9676 71.4437C51.0778 71.0605 52.0161 70.091 53.3218 70.4585C54.5649 70.8025 55.1122 69.5359 56.113 69.3717C57.145 69.1997 58.396 69.8565 59.1856 69.0277C60.2646 67.9097 61.4999 68.4413 62.6727 68.2928C62.8525 68.2693 63.1496 68.3553 63.1965 68.2772C64.5022 66.088 67.5046 68.3319 68.7946 66.1271C70.3427 66.088 71.9924 66.4867 73.2043 65.0481C74.2832 65.0481 75.3778 64.9308 76.4333 65.0794C77.6374 65.2514 78.0127 63.8753 79.2244 63.9066C80.7177 63.9379 82.4847 64.6415 83.6575 62.9684C84.9084 62.9449 86.2063 62.6869 87.3869 62.9527C88.9975 63.3202 89.8107 61.7878 91.2649 61.7565C93.1179 61.7252 95.2289 62.6322 96.7535 60.7323C98.0123 60.7323 99.318 60.529 100.514 60.787C102.101 61.1232 102.922 59.6455 104.392 59.5829C106.949 59.4735 109.724 60.615 112.039 58.5822C113.657 58.5822 115.307 58.3789 116.886 58.6369C118.614 58.9184 119.803 57.6909 121.304 57.5345C122.547 57.4016 123.813 57.5032 125.072 57.5032C126.331 57.5032 127.652 57.2608 128.833 57.5658C130.326 57.9489 130.788 56.1662 132.187 56.3773C133.594 56.5963 135.056 56.4243 136.495 56.4243C137.934 56.4243 139.404 56.2444 140.803 56.4712C142.359 56.7292 143.399 55.6268 144.689 55.4157C146.44 55.1342 148.27 55.3453 150.068 55.3453C151.866 55.3453 153.665 55.4157 155.463 55.3218C157.206 55.2358 159.145 55.9473 160.662 54.9075C162.367 53.7347 164.102 54.4305 165.807 54.2976C167.597 54.1569 169.395 54.2663 171.194 54.2663H225.118C226.916 54.2663 228.777 54.5713 230.489 54.1882C232.46 53.7503 233.586 55.6737 235.462 55.4C237.221 55.142 239.051 55.3453 240.849 55.3453C242.827 55.3453 244.821 55.5173 246.775 55.2984C248.621 55.0951 250.091 56.0177 251.74 56.3539C253.296 56.6744 254.961 56.4243 256.58 56.4243C258.019 56.4243 259.527 56.6979 260.88 56.3539C262.686 55.8926 263.656 57.5267 265.298 57.5892C268.566 57.7065 272.022 56.4868 275.102 58.5822C276.9 58.5822 278.73 58.7855 280.489 58.5274C282.365 58.2538 283.499 59.9661 285.454 59.794C287.58 59.6064 290.098 58.6525 292.006 60.7401C293.264 60.7401 294.57 60.959 295.766 60.6854C297.228 60.357 297.87 61.7643 299.105 61.8425C301.146 61.9598 303.374 61.1388 305.133 62.898C306.392 62.898 307.713 63.1404 308.894 62.8355C310.395 62.4445 310.911 64.0473 312.24 64.0395C313.733 64.0239 315.508 63.2811 316.665 65.0012C317.736 65.0168 318.847 65.2279 319.871 65.0012C321.169 64.7197 321.575 66.1427 322.67 66.1427C324.046 66.1427 325.547 65.783 326.54 67.206C328.088 67.2529 329.589 67.034 331.012 68.199C331.669 68.7384 333.374 67.98 334.046 68.5195C335.015 69.2936 335.938 69.5125 336.962 69.3248C338.205 69.0903 338.784 70.2396 339.761 70.4194C340.785 70.6071 341.841 70.6227 342.881 70.7087C343.592 72.2177 345.367 70.8885 346.149 71.8815C347.017 72.9761 348.221 72.2333 349.065 72.679C349.816 73.0777 350.348 73.9534 351.356 73.6641C352.591 73.3123 353.021 75.1027 354.14 74.7274C355.742 74.188 356.43 76.0644 358.025 75.9628C359.182 75.8846 360.449 76.9323 361.598 77.5968C362.607 78.1832 363.569 78.2301 364.515 77.6281C364.96 77.3466 365.523 76.9323 365.609 76.4866C365.727 75.9237 365.015 75.994 364.601 75.7986C362.638 74.876 360.856 73.5156 358.565 73.453C357.861 71.9206 356.118 73.1794 355.297 72.2802C354.57 71.4827 353.749 71.6391 352.904 71.4827C352.115 71.3342 351.372 70.4585 350.652 70.5133C348.823 70.654 347.603 68.7384 345.742 69.2623C345 67.8393 343.248 68.8166 342.506 68.0582C341.403 66.9324 340.215 67.378 339.042 67.1904C338.565 67.1122 338.041 66.9011 337.689 66.5805C336.634 65.6032 334.695 66.8542 333.991 65.0716C332.795 64.8761 331.38 65.5798 330.41 64.6494C329.3 63.586 328.073 64.1333 326.892 63.9848C326.368 63.9144 325.531 64.1568 325.344 63.891C324.148 62.1943 322.076 63.5939 320.981 62.7025C319.324 61.3499 317.604 62.0692 315.923 61.8112C315.758 61.7878 315.539 61.7409 315.469 61.6314C314.601 60.2632 313.116 60.4977 312.084 60.8261C310.356 61.3734 309.644 59.6455 308.19 59.6064C306.345 59.5517 304.226 60.5212 302.701 58.59C301.443 58.59 300.145 58.3867 298.941 58.6369C297.361 58.9575 296.533 57.4876 295.063 57.4407C292.866 57.3703 290.419 58.3945 288.495 56.4321C287.057 56.4321 285.555 56.1741 284.195 56.4946C282.553 56.8856 281.662 55.4313 280.309 55.3688C278.699 55.2906 277.041 55.1498 275.462 55.4C273.585 55.6971 272.162 54.5869 270.505 54.3133C269.285 54.11 267.995 54.2742 266.736 54.2742C265.477 54.2742 264.156 54.0318 262.975 54.3367C261.482 54.7198 261.021 52.9372 259.621 53.1483C258.214 53.3594 256.752 53.1952 255.313 53.1952C253.875 53.1952 252.405 53.0154 251.005 53.2421C249.449 53.5001 248.41 52.3977 247.119 52.1866C245.368 51.9051 243.539 52.1162 241.74 52.1162H236.885C235.087 52.1162 233.218 51.8113 231.506 52.1944C229.528 52.6479 228.386 50.9591 226.541 50.9669C206.948 51.0764 187.355 51.0373 167.761 51.0373C167.05 51.0373 166.026 50.7793 165.682 51.1467C164.181 52.7574 162.335 51.9677 160.654 52.085C158.864 52.2101 157.058 52.1162 155.267 52.1162C153.289 52.1162 151.296 52.2883 149.341 52.0693C147.496 51.8661 146.026 52.7886 144.376 53.1248C142.82 53.4454 141.155 53.1952 139.537 53.1952L139.56 53.1561ZM386.25 92.5696C386.149 92.4445 386.07 92.2959 385.953 92.1943C384.014 90.4664 382.583 88.1052 379.933 87.2451C378.916 85.4625 376.766 85.2671 375.343 83.9144C373.96 82.6087 371.802 82.1631 370.081 81.1701C368.924 80.4977 367.509 80.3101 366.563 79.2624C365.414 79.8254 364.085 80.0677 363.201 81.1076C361.505 80.5994 360.371 82.1005 358.854 82.3586C358.135 82.4837 357.634 83.6799 356.602 83.3437C355.336 82.9293 354.921 84.7198 353.827 84.407C352.255 83.9535 351.458 85.6032 349.964 85.5954C348.518 85.5954 347.251 86.9089 345.656 86.7917C344.968 87.9644 343.616 87.2842 342.842 87.7533C341.747 88.4179 340.731 89.059 339.48 88.7228C338.19 88.371 337.775 89.8409 336.689 89.8409C335.32 89.8409 333.804 89.4265 332.834 90.9042C331.763 90.9198 330.7 90.9433 329.628 90.9589C328.878 92.335 327.471 91.8346 326.337 92.1083C326.188 92.1474 326.016 92.335 325.977 92.4836C325.954 92.5774 326.165 92.851 326.251 92.8432C328.205 92.6321 329.691 94.6415 331.63 94.102C333.115 93.6876 333.6 95.4624 334.968 95.2591C336.165 95.0793 337.494 94.9464 338.291 96.2755C339.8 95.8612 340.887 96.8854 342.154 97.3467C343.108 97.6985 344.382 96.8541 345.172 97.808C346.04 98.8557 347.4 97.9643 348.057 98.6055C348.956 99.4811 349.863 99.528 350.934 99.5593C351.794 99.5828 352.122 100.928 353.178 100.615C354.398 100.255 355.132 101.858 355.93 101.608C357.642 101.068 358.346 103.062 359.816 102.773C360.512 104.618 362.576 103.195 363.483 104.266C364.218 105.142 365.594 104.657 366.118 105.759C367.11 105.29 368.158 104.915 369.073 104.321C369.55 104.016 370.222 104.063 370.457 103.813C371.317 102.867 372.576 102.781 373.584 102.155C374.671 101.475 375.789 100.584 377.212 100.56C378.322 98.9026 380.41 98.5507 381.723 97.1434C383.076 95.7048 384.507 94.3444 385.898 92.9448C386.023 92.8197 386.149 92.6947 386.281 92.5617L386.25 92.5696ZM27.7552 105.916C27.8959 105.775 27.9975 105.619 28.1461 105.533C29.1625 104.962 30.1945 104.415 31.2188 103.852C32.8294 104.649 33.6503 102.781 35.0733 102.702C35.8004 102.663 36.2695 101.35 37.3172 101.709C38.5916 102.147 39.006 100.482 40.1006 100.63C41.2578 100.795 42.0005 100.122 42.9309 99.6219C43.744 99.1762 45.0732 99.8799 45.769 98.6993C47.708 98.8635 49.1545 97.0574 51.1482 97.3623C51.6329 97.4405 52.4539 97.4327 52.6259 97.1512C53.6032 95.5719 55.9175 97.073 56.7306 95.2826C58.2161 95.0011 59.991 95.8612 61.1012 94.1489H64.3302C65.0965 92.8119 66.4256 93.1012 67.6218 92.9996C67.7626 92.9839 67.9189 92.7807 67.9893 92.6243C68.0284 92.5383 67.9268 92.3272 67.8251 92.2568C66.84 91.5531 65.2997 92.6008 64.4866 91.1388C64.3381 90.8729 63.5171 90.9668 63.0089 90.912C62.3131 90.8417 61.3045 91.0606 60.9917 90.6853C60.1395 89.6689 59.084 89.6845 58.0832 89.8722C56.8244 90.1067 56.285 88.9339 55.292 88.7619C54.2678 88.5821 52.8995 89.2858 52.2506 88.4179C51.2811 87.12 49.7018 88.3006 48.9199 87.3077C48.0599 86.2209 46.848 86.9715 46.0114 86.5102C45.2608 86.0958 44.7292 85.2514 43.7284 85.5329C42.4931 85.8847 42.0709 84.0864 40.9528 84.4696C39.4986 84.9621 38.9122 83.1248 37.6221 83.375C36.0897 83.6643 35.2766 82.0458 33.8771 82.0224C33.1656 80.5134 31.4377 81.8034 30.6011 80.8652C29.7645 79.927 28.2868 80.2241 27.5988 79.1295C27.0437 80.4508 25.2141 79.7784 24.6199 81.0294C23.4862 80.959 22.8608 82.1866 21.9147 82.2256C20.7732 82.2726 20.3666 83.7972 19.1391 83.3671C18.3573 84.0865 17.5832 84.8058 16.8014 85.5251C14.7999 85.2983 14.4167 88.1365 12.3917 87.8706C11 89.2623 9.6318 90.6931 8.19319 92.0379C7.55986 92.6321 8.07592 92.8667 8.38866 93.195C9.13924 93.9691 9.90545 94.7197 10.6717 95.4781C11.563 96.3694 12.3057 97.55 13.3691 98.066C14.6435 98.6836 15.6286 99.5671 16.731 100.372C17.7709 101.131 19.2251 101.295 20.351 101.975C22.5011 103.273 24.7919 104.25 27.0202 105.368C27.2939 105.509 27.5284 105.736 27.7708 105.924L27.7552 105.916ZM139.669 82.2804C138.231 82.2804 136.737 82.5384 135.369 82.2178C133.727 81.8347 132.836 83.2733 131.483 83.3437C129.693 83.4297 127.879 83.4922 126.096 83.3281C124.118 83.1482 122.422 83.9926 120.592 84.3757C117.559 85.0169 114.236 83.461 111.351 85.5172C110.092 85.5172 108.802 85.6893 107.582 85.4703C106.034 85.1967 104.986 86.2131 103.696 86.5336C102.508 86.8229 101.163 86.776 99.9435 86.5493C98.3876 86.26 97.3477 87.3233 96.0577 87.6282C94.0796 88.0817 91.7888 86.9246 90.0452 88.7541C88.6066 88.7541 87.1602 88.6525 85.7372 88.7776C84.2282 88.9105 83.0164 90.3647 81.3276 89.8331C79.5919 89.2858 78.5676 91.0684 77.0275 91.1779C76.9493 91.1779 76.8086 91.4515 76.8477 91.5375C76.9102 91.6939 77.0666 91.8815 77.2152 91.9128C78.6849 92.249 80.4441 91.3655 81.6403 93.0309C81.781 93.2263 82.6645 93.2732 83.0633 92.6947C83.2587 92.4132 83.5637 92.0379 83.8451 92.0223C85.0961 91.9519 86.4096 91.7721 87.6058 92.0457C89.0679 92.3741 89.7168 90.9668 90.9444 90.8886C92.985 90.7635 95.2133 91.5922 96.9724 89.8331C98.2312 89.8331 99.5526 89.5907 100.733 89.8956C102.234 90.2865 102.766 88.7463 104.072 88.6916C106.816 88.5899 109.654 89.45 112.305 87.7455C113.071 87.253 114.416 87.6673 115.495 87.6673C116.394 87.6673 117.332 87.4953 118.176 87.7064C119.466 88.0348 119.889 86.5571 120.975 86.5806C122.234 86.604 123.493 86.5806 124.752 86.5806C126.19 86.5806 127.684 86.3382 129.052 86.6431C130.545 86.9793 130.897 85.2436 132.406 85.4078C135.244 85.7205 138.145 85.5016 141.022 85.4938C141.734 85.4938 142.758 85.744 143.094 85.3843C144.595 83.7815 146.44 84.5087 148.121 84.4539C151.53 84.3366 154.947 84.4305 158.364 84.4148C159.067 84.4148 160.084 84.6103 160.404 84.2428C161.256 83.2655 162.249 83.3437 163.305 83.3437C185.767 83.3437 208.238 83.3437 230.701 83.3515C231.396 83.3515 232.421 83.1951 232.726 83.5704C233.734 84.8214 235.009 84.3836 236.189 84.3992C239.966 84.4461 243.734 84.4148 247.51 84.4148C248.23 84.4148 249.184 84.1177 249.629 84.4617C252.202 86.5024 255.118 85.1498 257.854 85.4547C259.449 85.6345 261.083 85.486 262.702 85.486C264.242 87.3155 266.345 86.2756 268.183 86.5727C270.372 86.9246 272.842 85.5407 274.75 87.6361C276.548 87.6361 278.417 87.941 280.121 87.5579C282.1 87.1122 283.233 88.8636 285.086 88.8088C287.447 88.7385 290.059 87.8393 292.185 89.794C293.624 89.794 295.063 89.7471 296.501 89.8096C297.862 89.8643 298.737 91.2248 300.387 90.9746C301.81 90.7478 303.632 90.2084 304.805 91.8894C306.595 91.9128 308.378 91.9284 310.168 91.9753C310.309 91.9753 310.473 92.1474 310.575 92.2725C311.443 93.3514 312.185 93.2341 313.217 92.3194C314.195 91.4593 315.61 92.1708 316.79 91.8815C316.939 91.8424 317.095 91.6548 317.158 91.5062C317.197 91.4202 317.072 91.1622 316.994 91.1466C315.985 90.9277 315.203 90.1067 314.296 89.8722C313.116 89.5672 311.701 90.0911 310.567 89.7158C309.457 89.3405 308.526 88.6603 307.213 88.6603C305.712 88.6603 303.945 89.4031 302.78 87.7064C301.349 87.683 299.91 87.5344 298.495 87.6752C297.002 87.8315 296.165 86.4476 294.625 86.4555C292.631 86.4711 290.309 87.5266 288.605 85.4781C287.166 85.4781 285.68 85.2436 284.304 85.5407C282.694 85.8847 281.74 84.579 280.419 84.4383C278.816 84.2741 277.166 84.2272 275.579 84.4383C273.734 84.6885 272.264 83.6877 270.614 83.3906C268.878 83.07 267.018 83.1873 265.243 83.3515C263.257 83.5392 261.56 82.7495 259.739 82.3038C258.386 81.9676 256.877 82.2413 255.438 82.2413C253.82 82.2413 252.108 81.9051 250.607 82.3273C248.871 82.812 248.191 81.0138 246.713 81.1311C244.93 81.2718 243.124 81.1623 241.326 81.1623H236.471C234.672 81.1623 232.843 80.959 231.084 81.217C229.207 81.4907 228.034 79.2859 226.127 80.0755C225.97 80.1381 225.767 80.0834 225.587 80.0834H166.276C166.096 80.0834 165.901 80.0365 165.744 80.099C165.588 80.1616 165.478 80.3336 165.353 80.4587C165.228 80.5837 165.103 80.7167 164.97 80.8418C164.845 80.959 164.72 81.1076 164.564 81.1545C164.399 81.2092 164.212 81.1701 164.032 81.1701H153.79C151.991 81.1701 150.123 81.4829 148.418 81.0841C146.581 80.6541 145.619 82.4133 143.993 82.2726C142.562 82.1475 141.116 82.2491 139.685 82.2491L139.669 82.2804ZM28.0601 127.636C29.3189 126.799 30.9529 126.768 32.2274 126.095C33.2359 125.564 34.6355 125.532 35.2922 124.344C36.5823 124.547 37.5596 123.765 38.662 123.406C39.7722 123.046 40.8668 122.718 41.9771 122.264C42.8762 121.897 43.8926 122.108 44.8543 121.318C45.6674 120.646 47.3328 121.467 48.0912 120.091C49.9754 120.755 51.156 118.465 53.0168 118.918C53.2748 118.981 53.6267 118.691 53.9316 118.566C53.7752 118.332 53.5641 117.878 53.4625 117.902C52.3835 118.144 51.9848 116.987 51.1951 116.83C50.1943 116.627 49.2796 116.643 48.2632 116.01C47.2233 115.368 45.6127 115.634 44.5415 114.626C42.8293 115.251 41.8441 113.351 40.1319 113.429C38.9278 113.484 37.7941 111.999 36.2774 112.46C35.7457 111.373 34.3384 111.686 33.7051 110.912C32.845 109.872 31.3908 110.849 30.82 110.122C29.9834 109.035 28.3337 109.575 27.7708 108.269C26.8482 109.286 25.1672 109.051 24.3932 110.318C23.1422 109.849 22.7435 111.522 21.602 111.412C20.6794 111.318 20.3432 112.39 19.3737 112.585C18.4824 112.765 17.7631 113.852 16.9656 114.532C14.9249 114.203 14.5887 117.104 12.5168 116.877C12.0477 116.83 11.7897 117.839 12.0555 118.199C12.7905 119.192 13.7131 120.044 14.5575 120.951C16.4417 120.724 16.9109 122.804 18.4355 123.328C19.8272 123.805 21.1563 124.571 22.4464 125.368C23.7052 126.142 25.3001 126.314 26.4651 127.401C26.77 127.69 27.4659 127.557 28.0523 127.628L28.0601 127.636ZM366.36 127.581V127.565C366.72 127.565 367.181 127.714 367.415 127.542C369.487 126.088 371.848 125.22 374.053 124.047C374.796 123.656 375.633 123.461 376.313 122.976C377.282 122.288 377.767 120.865 379.307 121.076C380.199 120.185 381.09 119.301 381.973 118.402C382.138 118.238 381.833 116.971 381.59 116.963C380.433 116.916 379.784 116.096 378.963 115.447C377.634 114.383 375.922 113.852 374.812 112.476C371.95 111.514 369.401 109.903 366.751 108.519C366.344 108.308 366.336 108.214 365.945 108.496C364.867 109.278 363.631 110.091 362.388 110.232C360.754 110.419 359.683 111.576 358.229 111.975C357.916 112.061 357.541 112.522 357.376 112.444C355.719 111.647 354.898 113.969 353.506 113.515C351.997 113.023 351.63 115.11 350.152 114.673C348.745 114.25 347.861 116.088 346.282 115.775C345.328 115.587 344.749 116.916 343.506 116.885C342.435 116.862 341.341 117.628 340.262 118.074C340.129 118.128 339.941 118.339 339.965 118.441C339.996 118.59 340.223 118.832 340.316 118.809C341.997 118.433 343.147 120.075 344.671 119.997C346.298 119.911 347.322 121.912 349.081 121.115C349.675 121.803 350.308 122.475 351.333 122.178C352.576 121.811 352.975 123.531 354.124 123.257C355.328 122.968 356.047 124.242 356.915 124.25C358.26 124.25 359.151 125.188 360.254 125.337C361.254 125.47 361.52 126.619 362.49 126.502C363.616 126.369 364.577 126.572 365.312 127.557C365.437 127.729 366 127.581 366.36 127.581ZM391.684 132.882C391.653 131.506 391.966 130.028 390.605 129.02C390.879 127.706 389.948 126.776 389.612 125.673C389.151 124.156 387.892 123.5 387.04 122.429C386.485 121.733 385.742 121.185 385.163 120.497C384.593 119.817 384.382 120.482 383.998 120.685C383.412 120.99 382.56 121.037 382.2 121.49C380.425 123.765 377.861 124.774 375.437 126.033C374.702 126.416 373.913 126.721 373.232 127.19C372.396 127.769 371.958 128.902 370.613 128.738C370.23 128.691 370.113 129.199 370.363 129.457C370.746 129.84 371.067 130.45 371.52 130.552C372.544 130.794 373.311 131.443 374.21 131.889C375.25 132.397 376.375 132.741 377.4 133.288C378.307 133.773 378.619 135.016 379.862 135.157C381.473 135.345 381.88 137.479 383.748 137.55C384.405 137.573 385.015 138.722 385.656 139.356C386.414 140.098 387.181 140.833 387.939 141.576C388.995 140.849 389.331 139.692 389.878 138.613C391.622 135.204 391.684 135.227 391.684 132.89V132.882ZM2.33708 133.281C1.46141 135.071 3.14239 136.518 3.8226 138.222C4.00243 138.668 4.47154 138.949 4.495 139.575C4.52627 140.568 5.57396 140.896 6.08216 141.6C6.59036 141.091 7.09857 140.591 7.60677 140.083C8.2401 139.449 8.97505 138.887 9.48325 138.159C10.0618 137.331 11.0548 137.495 11.7115 137.01C12.423 136.486 13.0016 135.767 13.6349 135.134C15.6052 135.611 15.8475 133.148 17.5754 132.874C18.9749 132.647 20.1712 131.365 21.5707 130.888C22.2978 130.638 22.7826 130.271 23.2751 129.801C24.0492 129.059 23.8224 128.683 22.806 128.668C21.2267 128.636 21.0547 126.393 19.3893 126.51C16.8092 124.891 13.7209 124.063 11.7584 121.459C11.4144 121.006 10.5309 120.982 9.968 120.646C9.55362 120.404 9.3347 119.911 8.79522 120.529C8.09155 121.342 7.26276 122.045 6.52782 122.835C5.81633 123.601 4.89374 124.321 4.54191 125.243C4.27608 125.939 3.71314 126.385 3.5255 126.971C3.16585 128.081 3.69751 129.496 2.33708 130.255V133.288V133.281ZM391.692 81.7018C391.496 80.4821 392.044 79.2546 391.293 78.0659C390.59 76.9557 390.073 75.7204 389.534 74.5085C388.909 73.109 387.087 72.4835 387.087 70.6853C387.087 70.5602 386.837 70.4429 386.727 70.3021C385.805 69.1763 384.03 68.8401 383.107 69.9034C382.145 71.0136 380.551 71.2013 379.792 72.202C378.838 73.4452 377.392 73.5077 376.321 74.3678C375.57 74.9776 374.28 74.8994 373.78 75.9315C373.154 77.1981 371.497 76.6195 370.746 77.7845C370.261 78.5353 370.113 78.5822 371.067 79.0435C373.6 80.2632 376.242 81.3187 378.612 82.812C379.737 83.5235 380.871 84.2897 381.973 85.0559C383.271 85.9629 384.28 87.2842 385.429 88.4101C385.93 88.9027 386.407 89.4734 387.009 89.7705C387.439 89.9816 388.064 89.8409 388.596 89.8018C389.198 89.7627 389.503 89.45 389.526 88.8088C389.581 87.6126 390.73 86.9011 390.722 85.5016C390.722 84.2975 392.106 83.1639 391.676 81.6862L391.692 81.7018ZM2.31363 81.2092C2.31363 82.1005 1.95398 83.3124 2.39181 83.8206C3.17367 84.7198 3.37695 85.5563 3.44731 86.6587C3.48641 87.2451 4.1588 87.769 4.4559 88.3632C5.27685 90.0051 6.61382 90.3256 7.857 89.1138C8.88122 88.113 9.95236 87.1513 10.8749 86.0645C12.251 84.4539 14.534 84.063 15.7615 82.2882C16.9969 82.7182 17.4894 81.3812 18.5058 81.1232C20.2572 80.6854 21.688 79.3641 23.4706 78.8715C23.9944 78.7308 23.8303 78.4962 23.5488 78.1129C22.4855 76.6508 20.3119 76.7681 19.3893 75.1184C19.2642 74.8916 18.8029 74.7431 18.498 74.7353C17.4112 74.7353 16.9734 73.4843 15.7459 73.4843C15.1126 73.4843 14.5887 72.077 13.8225 71.7642C12.8452 71.3655 12.0165 70.9354 11.2346 70.2083C9.67871 68.7854 7.81787 68.973 6.89529 70.7713C6.42618 71.6782 6.22289 72.7572 5.30812 73.3123C4.26826 73.9299 4.68264 75.22 3.83824 75.9628C3.1033 76.6117 3.14239 77.7767 2.39181 78.6057C1.94616 79.0982 2.31363 80.3179 2.31363 81.217V81.2092ZM391.575 104.047C392.458 102.171 390.934 100.584 390.566 98.7697C390.347 97.6516 389.8 96.5883 389.292 95.5562C389.01 94.9855 388.103 95.048 387.9 95.306C386.586 97.0105 384.257 97.3701 382.998 99.0746C381.825 100.662 379.62 100.802 378.463 102.452C378.009 103.101 376.962 102.96 376.219 103.523C375.468 104.102 374.249 104.188 373.709 105.134C373.029 106.33 371.278 105.697 370.707 107.01C370.644 107.167 370.347 107.276 370.355 107.393C370.379 107.652 370.605 108.128 370.621 108.121C371.88 107.691 372.38 109.035 373.381 109.317C374.952 109.755 376.368 110.709 377.877 111.389C379.268 112.022 379.902 113.773 381.692 113.875C382.091 113.899 382.435 114.61 382.833 114.954C384.077 116.025 385.328 115.916 386.516 114.97C388.627 113.296 388.971 110.544 390.597 108.598C390.66 107.065 392.349 105.931 391.567 104.047H391.575ZM5.68341 95.2279C5.07357 95.1184 4.62009 95.3999 4.48718 95.9472C4.14316 97.4092 3.00166 98.6367 3.22058 100.255C1.7116 101.279 2.40745 102.835 2.33708 104.172C2.25108 105.752 2.31363 105.759 3.39259 108.019C4.10407 109.512 4.83119 110.998 5.54268 112.491C5.68341 112.788 5.73033 113.156 5.93361 113.398C6.3949 113.938 6.92656 114.43 7.44258 114.923C8.56848 116.017 10.0618 116.197 11.0548 114.97C12.1025 113.68 13.8929 113.719 14.8624 112.374C15.8006 111.068 17.4816 110.967 18.8186 110.31C19.8663 109.794 20.8279 109.129 21.86 108.582C22.4386 108.277 23.5488 108.136 23.5957 107.8C23.7208 106.909 22.7513 106.15 22.1258 106.096C21.0703 105.994 20.4526 105.454 19.9914 104.759C19.3346 103.766 18.0758 104.071 17.3565 103.281C16.6685 102.523 15.2846 102.851 14.7764 101.756C14.19 100.474 12.509 100.92 11.8054 99.8642C10.4058 97.7532 7.64586 97.331 6.16034 95.3295C6.08998 95.2279 5.83979 95.2591 5.6756 95.2279H5.68341Z" fill="white"/>
</svg>
