<svg width="26" height="26" viewBox="0 0 26 26" fill="none" xmlns="http://www.w3.org/2000/svg">
<path d="M9.62648 7.76718C9.82468 7.77249 10.0444 7.7832 10.2535 8.24728C10.3921 8.55623 10.6257 9.12498 10.8159 9.58829C10.964 9.9488 11.0858 10.2455 11.1163 10.3062C11.1859 10.4449 11.2288 10.6049 11.1377 10.7915C11.127 10.8135 11.1168 10.8346 11.1071 10.8549C11.034 11.0065 10.982 11.1145 10.8591 11.2556C10.8085 11.3136 10.7559 11.3772 10.7035 11.4406C10.6112 11.552 10.5196 11.6628 10.441 11.741C10.3017 11.8796 10.157 12.0291 10.3177 12.3064C10.4786 12.5837 11.0413 13.4959 11.8719 14.232C12.765 15.027 13.5415 15.3621 13.934 15.5314C14.0102 15.5643 14.072 15.5909 14.1173 15.6135C14.396 15.7522 14.5621 15.7308 14.7229 15.5442C14.8837 15.3574 15.4195 14.7333 15.6072 14.456C15.7894 14.1787 15.9769 14.2213 16.2342 14.3173C16.4914 14.4133 17.8633 15.0854 18.1419 15.224C18.197 15.2515 18.2485 15.2762 18.2963 15.2991C18.4902 15.3921 18.622 15.4553 18.6779 15.5495C18.7475 15.6668 18.7475 16.2215 18.5171 16.8723C18.2813 17.523 17.1452 18.1471 16.6307 18.1951C16.582 18.1997 16.5335 18.2055 16.4836 18.2116C16.0122 18.2686 15.4136 18.341 13.2813 17.5017C10.6538 16.4684 8.91936 13.9049 8.56869 13.3866C8.54101 13.3456 8.52195 13.3175 8.51175 13.3038L8.50582 13.2959C8.34628 13.0824 7.37025 11.7764 7.37025 10.4289C7.37025 9.13973 8.00533 8.46854 8.295 8.1624C8.31336 8.14299 8.33033 8.12506 8.34566 8.10853C8.60285 7.8312 8.90302 7.76186 9.09056 7.76186C9.27818 7.76186 9.46572 7.76186 9.62648 7.76718Z" fill="#161616"/>
<path fill-rule="evenodd" clip-rule="evenodd" d="M2.36623 23.1089C2.27759 23.4306 2.57062 23.7276 2.89351 23.6432L7.88479 22.3395C9.46034 23.193 11.2342 23.6463 13.0403 23.6463H13.0456C18.9888 23.6463 23.8334 18.8298 23.8334 12.9091C23.8334 10.0395 22.7132 7.34044 20.6768 5.31349C18.6405 3.28663 15.9341 2.1665 13.0455 2.1665C7.10244 2.1665 2.25781 6.98306 2.25781 12.9038C2.25714 14.7873 2.7543 16.6379 3.69939 18.2697L2.36623 23.1089ZM5.26602 18.7013C5.38174 18.2813 5.32394 17.8323 5.10557 17.4553C4.30374 16.0708 3.88224 14.5008 3.88281 12.9038C3.88281 7.88822 7.99219 3.7915 13.0455 3.7915C15.5046 3.7915 17.7987 4.74157 19.5305 6.46523C21.2603 8.18698 22.2084 10.4715 22.2084 12.9091C22.2084 17.9246 18.099 22.0213 13.0456 22.0213H13.0403C11.5057 22.0213 9.99771 21.636 8.65875 20.9107C8.29635 20.7144 7.8729 20.6631 7.47412 20.7673L4.48152 21.5489L5.26602 18.7013Z" fill="#161616"/>
</svg>
